<svg xmlns="http://www.w3.org/2000/svg" xmlns:xlink="http://www.w3.org/1999/xlink" width="500" zoomAndPan="magnify" viewBox="0 0 375 374.999991" height="500" preserveAspectRatio="xMidYMid meet" version="1.0"><defs><clipPath id="77052cf5ba"><path d="M 26.933594 0 L 347.933594 0 L 347.933594 375 L 26.933594 375 Z M 26.933594 0 " clip-rule="nonzero"/></clipPath></defs><path fill="#e7f2f1" d="M 341.511719 106 L 325.433594 84.234375 C 322.609375 80.425781 318.386719 77.871094 313.75 77.125 L 313.75 65.054688 C 313.75 61.398438 310.777344 58.453125 307.09375 58.453125 L 289.261719 58.453125 C 285.574219 58.453125 282.574219 61.398438 282.574219 65.054688 L 282.574219 76.679688 C 279.75 76.265625 277.042969 75.164062 274.695312 73.46875 L 249.90625 55.71875 C 246.816406 53.488281 243.070312 52.296875 239.265625 52.296875 L 178.992188 52.296875 C 169.003906 52.296875 160.917969 60.296875 160.917969 70.109375 L 160.917969 245.867188 L 148.4375 245.867188 L 148.4375 135.257812 C 148.347656 131.957031 147.992188 127.734375 146.949219 122.976562 C 146.535156 121.015625 146 118.960938 145.316406 116.820312 C 142.671875 108.644531 138.894531 102.460938 135.953125 98.386719 L 145.316406 98.386719 L 117.257812 30.800781 L 117.257812 3.148438 L 61.113281 3.148438 L 61.113281 30.800781 L 33.023438 98.386719 L 42.386719 98.386719 C 39.445312 102.460938 35.671875 108.644531 33.023438 116.820312 C 32.339844 118.960938 31.804688 121.015625 31.390625 122.976562 C 30.351562 127.734375 29.992188 131.957031 29.902344 135.257812 L 29.902344 291.421875 C 29.902344 301.886719 38.523438 310.390625 49.195312 310.390625 L 123.5 310.390625 L 123.5 357.460938 C 123.5 365.398438 130.007812 371.851562 138.09375 371.851562 L 183.746094 371.851562 C 191.800781 371.851562 198.339844 365.398438 198.339844 357.460938 L 198.339844 310.390625 L 326.886719 310.390625 C 336.875 310.390625 344.960938 302.421875 344.960938 292.582031 L 344.960938 116.464844 C 344.960938 112.71875 343.742188 109.0625 341.511719 106 Z M 247.171875 89.167969 L 179.792969 89.167969 C 177.980469 89.167969 176.523438 87.742188 176.523438 85.957031 L 176.523438 73.976562 C 176.523438 72.191406 177.980469 70.734375 179.792969 70.734375 L 240.515625 70.734375 C 241.46875 70.734375 242.386719 71.148438 243.011719 71.863281 C 244.675781 73.855469 246.609375 76.5625 248.273438 79.953125 C 249.136719 81.734375 249.789062 83.460938 250.292969 85.035156 C 250.949219 87.085938 249.34375 89.167969 247.171875 89.167969 Z M 247.171875 89.167969 " fill-opacity="1" fill-rule="nonzero"/><path fill="#a8dee1" d="M 129.710938 147.566406 L 129.710938 248.484375 C 125.9375 251.070312 123.5 255.382812 123.5 260.257812 L 123.5 285.832031 L 48.628906 285.832031 L 48.628906 147.566406 Z M 129.710938 147.566406 " fill-opacity="1" fill-rule="nonzero"/><path fill="#ceabd8" d="M 326.234375 113.757812 L 326.234375 288.894531 L 198.339844 288.894531 L 198.339844 260.257812 C 198.339844 258.355469 197.953125 256.542969 197.269531 254.878906 L 197.300781 254.878906 C 209.84375 253.183594 218.96875 245.453125 220.1875 236.652344 C 220.898438 231.476562 217.835938 227.015625 216.144531 224.371094 C 223.335938 221.160156 229.371094 215.6875 229.546875 208.996094 C 229.695312 203.554688 225.890625 199.1875 223.542969 196.957031 C 228.449219 191.632812 231.6875 185.210938 232.667969 178.28125 C 234.480469 165.257812 228.507812 148.90625 217.066406 144.476562 C 216.054688 144.089844 210.347656 142.007812 204.582031 144.476562 C 198.011719 147.328125 192.722656 155.59375 195.21875 162.910156 C 196.199219 165.765625 198.308594 168.351562 200.867188 170.105469 L 200.835938 170.136719 C 199.441406 172.277344 196.734375 175.726562 192.097656 178.28125 C 186.808594 181.195312 181.84375 181.40625 179.644531 181.34375 L 179.644531 113.757812 Z M 326.234375 113.757812 " fill-opacity="1" fill-rule="nonzero"/><path fill="#6fceae" d="M 313.75 65.054688 L 313.75 77.125 C 312.769531 76.976562 311.789062 76.890625 310.808594 76.890625 L 285.335938 76.890625 C 284.414062 76.890625 283.492188 76.828125 282.574219 76.679688 L 282.574219 65.054688 C 282.574219 61.398438 285.574219 58.453125 289.261719 58.453125 L 307.09375 58.453125 C 310.777344 58.453125 313.75 61.398438 313.75 65.054688 Z M 313.75 65.054688 " fill-opacity="1" fill-rule="nonzero"/><path fill="#c3ddda" d="M 292.855469 186.546875 L 287.03125 188.480469 C 285.542969 188.988281 284.386719 190.058594 283.820312 191.394531 C 279.480469 188.628906 277.28125 184.199219 278.292969 180.570312 C 278.441406 180.066406 279.480469 176.558594 282.839844 175.546875 C 285.097656 174.863281 287.089844 175.726562 287.683594 175.992188 L 287.714844 175.992188 C 287 179.769531 288.992188 184.140625 292.855469 186.546875 Z M 292.855469 186.546875 " fill-opacity="1" fill-rule="nonzero"/><path fill="#c3ddda" d="M 308.402344 138.261719 C 309.410156 141.886719 307.242188 146.316406 302.902344 149.054688 C 302.308594 147.746094 301.179688 146.703125 299.691406 146.199219 L 293.835938 144.238281 C 297.703125 141.828125 299.691406 137.457031 299.007812 133.679688 C 299.601562 133.414062 301.59375 132.582031 303.855469 133.234375 C 307.210938 134.246094 308.253906 137.753906 308.402344 138.261719 Z M 308.402344 138.261719 " fill-opacity="1" fill-rule="nonzero"/><path fill="#c3ddda" d="M 263.34375 154.820312 L 257.488281 156.753906 C 256 157.261719 254.871094 158.332031 254.277344 159.640625 C 249.9375 156.902344 247.769531 152.445312 248.777344 148.84375 C 248.925781 148.339844 249.96875 144.832031 253.324219 143.820312 C 255.585938 143.136719 257.578125 144 258.171875 144.265625 C 257.488281 148.042969 259.476562 152.414062 263.34375 154.820312 Z M 263.34375 154.820312 " fill-opacity="1" fill-rule="nonzero"/><path fill="#e7f2f1" d="M 268.75 142.75 C 271.425781 147.328125 269.96875 152.027344 269.761719 152.679688 L 269.464844 153.632812 C 268.515625 153.425781 267.472656 153.453125 266.464844 153.78125 L 263.34375 154.820312 C 259.476562 152.414062 257.488281 148.042969 258.171875 144.265625 C 258.199219 144.058594 258.230469 143.878906 258.289062 143.671875 C 258.320312 143.640625 258.320312 143.582031 258.320312 143.554688 C 259.6875 138.796875 265.957031 138.199219 268.601562 142.542969 C 268.664062 142.601562 268.691406 142.691406 268.75 142.75 Z M 268.75 142.75 " fill-opacity="1" fill-rule="nonzero"/><path fill="#e7f2f1" d="M 298.265625 174.476562 C 300.972656 179.054688 299.515625 183.753906 299.304688 184.40625 L 298.980469 185.359375 C 298 185.152344 296.988281 185.179688 295.976562 185.507812 L 292.855469 186.546875 C 288.992188 184.140625 287 179.769531 287.714844 175.992188 C 287.746094 175.785156 287.773438 175.605469 287.832031 175.398438 C 287.832031 175.367188 287.832031 175.308594 287.863281 175.277344 C 289.199219 170.523438 295.472656 169.925781 298.148438 174.269531 C 298.175781 174.328125 298.234375 174.417969 298.265625 174.476562 Z M 298.265625 174.476562 " fill-opacity="1" fill-rule="nonzero"/><path fill="#e7f2f1" d="M 299.007812 133.679688 C 299.691406 137.457031 297.703125 141.828125 293.835938 144.238281 L 290.714844 143.195312 C 289.707031 142.867188 288.695312 142.839844 287.714844 143.046875 L 287.417969 142.097656 C 287.210938 141.441406 285.753906 136.742188 288.429688 132.164062 C 288.488281 132.105469 288.515625 132.015625 288.546875 131.957031 C 291.222656 127.644531 297.492188 128.210938 298.859375 132.96875 C 298.859375 133.027344 298.859375 133.058594 298.890625 133.085938 C 298.949219 133.292969 298.980469 133.472656 299.007812 133.679688 Z M 299.007812 133.679688 " fill-opacity="1" fill-rule="nonzero"/><path fill="#604533" d="M 287.714844 143.046875 C 288.695312 142.839844 289.707031 142.867188 290.714844 143.195312 L 293.835938 144.238281 L 299.691406 146.199219 C 301.179688 146.703125 302.308594 147.746094 302.902344 149.054688 C 303.46875 150.242188 303.554688 151.640625 303.109375 153.007812 L 302.992188 153.335938 C 302.011719 156.160156 298.917969 157.675781 296.066406 156.726562 L 287.089844 153.722656 C 284.238281 152.769531 282.691406 149.707031 283.671875 146.914062 L 283.792969 146.554688 C 284.414062 144.742188 285.929688 143.464844 287.714844 143.046875 Z M 287.714844 143.046875 " fill-opacity="1" fill-rule="nonzero"/><path fill="#604533" d="M 283.820312 191.394531 C 284.386719 190.058594 285.542969 188.988281 287.03125 188.480469 L 292.855469 186.546875 L 295.976562 185.507812 C 296.988281 185.179688 298 185.152344 298.980469 185.359375 C 300.761719 185.746094 302.308594 187.023438 302.902344 188.867188 L 303.023438 189.195312 C 304.003906 192.019531 302.457031 195.082031 299.601562 196.035156 L 290.628906 199.007812 C 287.773438 199.957031 284.683594 198.472656 283.730469 195.648438 L 283.613281 195.320312 C 283.136719 193.980469 283.257812 192.585938 283.820312 191.394531 Z M 283.820312 191.394531 " fill-opacity="1" fill-rule="nonzero"/><path fill="#604533" d="M 254.277344 159.640625 C 254.871094 158.332031 256 157.261719 257.488281 156.753906 L 263.34375 154.820312 L 266.464844 153.78125 C 267.472656 153.453125 268.515625 153.425781 269.464844 153.632812 C 271.25 154.019531 272.792969 155.296875 273.386719 157.140625 L 273.507812 157.46875 C 274.488281 160.292969 272.941406 163.355469 270.089844 164.308594 L 261.113281 167.28125 C 258.261719 168.230469 255.167969 166.746094 254.1875 163.921875 L 254.070312 163.59375 C 253.625 162.253906 253.710938 160.828125 254.277344 159.640625 Z M 254.277344 159.640625 " fill-opacity="1" fill-rule="nonzero"/><path fill="#ffc05a" d="M 216.144531 224.371094 C 217.835938 227.015625 220.898438 231.476562 220.1875 236.652344 C 218.96875 245.453125 209.84375 253.183594 197.300781 254.878906 L 197.269531 254.878906 C 195.367188 250.210938 191.058594 246.761719 185.855469 246.046875 C 185.171875 245.925781 184.460938 245.867188 183.746094 245.867188 L 179.644531 245.867188 L 179.644531 218.214844 C 181.785156 220.207031 191.386719 228.5625 204.582031 227.433594 C 208.296875 227.136719 212.367188 226.066406 216.144531 224.371094 Z M 216.144531 224.371094 " fill-opacity="1" fill-rule="nonzero"/><path fill="#ffc05a" d="M 207.761719 172.601562 C 208.117188 175.191406 208.535156 181.582031 204.582031 187.5 C 199.617188 194.933594 189.75 198.621094 179.644531 196.71875 L 179.644531 181.34375 C 181.84375 181.40625 186.808594 181.195312 192.097656 178.28125 C 196.734375 175.726562 199.441406 172.277344 200.835938 170.136719 L 200.867188 170.105469 C 202.976562 171.621094 205.414062 172.542969 207.761719 172.601562 Z M 207.761719 172.601562 " fill-opacity="1" fill-rule="nonzero"/><path fill="#aba9a0" d="M 223.542969 196.957031 C 225.890625 199.183594 229.695312 203.554688 229.546875 208.996094 C 229.371094 215.6875 223.335938 221.160156 216.144531 224.371094 C 212.367188 226.066406 208.296875 227.136719 204.582031 227.433594 C 191.386719 228.5625 181.785156 220.207031 179.644531 218.214844 L 179.644531 196.71875 C 189.75 198.621094 199.617188 194.933594 204.582031 187.5 C 208.535156 181.582031 208.117188 175.191406 207.761719 172.601562 C 205.414062 172.542969 202.976562 171.621094 200.867188 170.105469 C 198.308594 168.351562 196.199219 165.765625 195.21875 162.910156 C 192.722656 155.59375 198.011719 147.328125 204.582031 144.476562 C 210.347656 142.007812 216.054688 144.089844 217.066406 144.476562 C 228.507812 148.90625 234.480469 165.257812 232.667969 178.28125 C 231.6875 185.210938 228.449219 191.632812 223.542969 196.957031 Z M 223.542969 196.957031 " fill-opacity="1" fill-rule="nonzero"/><path fill="#86cacf" d="M 344.960938 116.464844 L 344.960938 292.582031 C 344.960938 302.421875 336.875 310.390625 326.886719 310.390625 L 198.339844 310.390625 L 198.339844 288.894531 L 326.234375 288.894531 L 326.234375 113.757812 L 179.644531 113.757812 L 179.644531 245.867188 L 160.917969 245.867188 L 160.917969 70.109375 C 160.917969 60.296875 169.003906 52.296875 178.992188 52.296875 L 239.265625 52.296875 C 243.070312 52.296875 246.816406 53.488281 249.90625 55.71875 L 274.695312 73.46875 C 277.042969 75.164062 279.75 76.265625 282.574219 76.679688 C 283.492188 76.828125 284.414062 76.890625 285.335938 76.890625 L 310.808594 76.890625 C 311.789062 76.890625 312.769531 76.976562 313.75 77.125 C 318.386719 77.871094 322.609375 80.425781 325.433594 84.234375 L 341.511719 106 C 343.742188 109.0625 344.960938 112.71875 344.960938 116.464844 Z M 247.171875 89.167969 C 249.34375 89.167969 250.949219 87.085938 250.292969 85.035156 C 249.789062 83.460938 249.136719 81.734375 248.273438 79.953125 C 246.609375 76.5625 244.675781 73.855469 243.011719 71.863281 C 242.386719 71.148438 241.46875 70.734375 240.515625 70.734375 L 179.792969 70.734375 C 177.980469 70.734375 176.523438 72.191406 176.523438 73.976562 L 176.523438 85.957031 C 176.523438 87.742188 177.980469 89.167969 179.792969 89.167969 Z M 247.171875 89.167969 " fill-opacity="1" fill-rule="nonzero"/><path fill="#e15c63" d="M 198.339844 310.390625 L 198.339844 357.460938 C 198.339844 365.398438 191.800781 371.851562 183.746094 371.851562 L 138.09375 371.851562 C 130.007812 371.851562 123.5 365.398438 123.5 357.460938 L 123.5 347.261719 L 170.28125 347.261719 L 170.28125 288.894531 L 123.5 288.894531 L 123.5 270.457031 L 198.339844 270.457031 Z M 198.339844 310.390625 " fill-opacity="1" fill-rule="nonzero"/><path fill="#4aaf8f" d="M 198.339844 260.257812 L 198.339844 270.457031 L 185.886719 270.457031 L 185.855469 246.046875 C 191.058594 246.761719 195.367188 250.210938 197.269531 254.878906 C 197.953125 256.542969 198.339844 258.355469 198.339844 260.257812 Z M 198.339844 260.257812 " fill-opacity="1" fill-rule="nonzero"/><path fill="#6fceae" d="M 185.855469 246.046875 L 185.886719 270.457031 L 173.402344 270.457031 L 173.402344 245.867188 L 183.746094 245.867188 C 184.460938 245.867188 185.171875 245.925781 185.855469 246.046875 Z M 185.855469 246.046875 " fill-opacity="1" fill-rule="nonzero"/><path fill="#4aaf8f" d="M 160.917969 245.867188 L 173.402344 245.867188 L 173.402344 270.457031 L 160.917969 270.457031 Z M 160.917969 245.867188 " fill-opacity="1" fill-rule="nonzero"/><path fill="#6fceae" d="M 123.5 288.894531 L 170.28125 288.894531 L 170.28125 347.261719 L 123.5 347.261719 Z M 123.5 288.894531 " fill-opacity="1" fill-rule="nonzero"/><path fill="#6fceae" d="M 148.4375 245.867188 L 160.917969 245.867188 L 160.917969 270.457031 L 148.4375 270.457031 Z M 148.4375 245.867188 " fill-opacity="1" fill-rule="nonzero"/><path fill="#4aaf8f" d="M 148.4375 245.867188 L 148.4375 270.457031 L 135.953125 270.457031 L 135.953125 246.046875 C 136.636719 245.925781 137.351562 245.867188 138.09375 245.867188 Z M 148.4375 245.867188 " fill-opacity="1" fill-rule="nonzero"/><path fill="#6fceae" d="M 117.257812 30.800781 L 145.316406 98.386719 L 33.023438 98.386719 L 61.113281 30.800781 Z M 117.257812 30.800781 " fill-opacity="1" fill-rule="nonzero"/><path fill="#6fceae" d="M 135.953125 246.078125 L 135.953125 270.457031 L 123.5 270.457031 L 123.5 260.257812 C 123.5 255.382812 125.9375 251.070312 129.710938 248.484375 C 131.523438 247.207031 133.632812 246.34375 135.953125 246.046875 Z M 135.953125 246.078125 " fill-opacity="1" fill-rule="nonzero"/><path fill="#4aaf8f" d="M 61.113281 3.148438 L 117.257812 3.148438 L 117.257812 30.800781 L 61.113281 30.800781 Z M 61.113281 3.148438 " fill-opacity="1" fill-rule="nonzero"/><path fill="#4aaf8f" d="M 117.257812 202.367188 C 117.199219 203.496094 116.605469 214.082031 107.183594 220.445312 C 97.078125 227.226562 86.078125 223.003906 85.21875 222.675781 C 85.542969 221.128906 87.863281 210.394531 98.414062 204.714844 C 106.945312 200.167969 115.207031 201.890625 117.257812 202.367188 Z M 117.257812 202.367188 " fill-opacity="1" fill-rule="nonzero"/><path fill="#ffc05a" d="M 105.546875 170.285156 C 107.417969 172.007812 109.410156 173.050781 111.015625 173.671875 C 109.410156 174.296875 107.417969 175.339844 105.546875 177.0625 C 100.046875 182.089844 100.046875 188.925781 100.109375 190.5625 L 100.078125 190.5625 C 100.136719 188.925781 100.109375 182.089844 94.640625 177.0625 C 92.765625 175.339844 90.746094 174.296875 89.171875 173.671875 C 90.746094 173.050781 92.765625 172.007812 94.640625 170.285156 C 99.574219 165.734375 100.078125 159.667969 100.078125 157.378906 L 100.109375 157.378906 C 100.109375 159.699219 100.554688 165.734375 105.546875 170.285156 Z M 105.546875 170.285156 " fill-opacity="1" fill-rule="nonzero"/><path fill="#ffc05a" d="M 105.546875 253.242188 C 107.417969 254.964844 109.410156 256.007812 111.015625 256.632812 C 109.410156 257.257812 107.417969 258.296875 105.546875 260.023438 C 100.046875 265.046875 100.046875 271.886719 100.109375 273.519531 L 100.078125 273.519531 C 100.136719 271.886719 100.109375 265.046875 94.640625 260.023438 C 92.765625 258.296875 90.746094 257.257812 89.171875 256.632812 C 90.746094 256.007812 92.765625 254.964844 94.640625 253.242188 C 99.574219 248.691406 100.078125 242.628906 100.078125 240.335938 L 100.109375 240.335938 C 100.109375 242.65625 100.554688 248.691406 105.546875 253.242188 Z M 105.546875 253.242188 " fill-opacity="1" fill-rule="nonzero"/><path fill="#4aaf8f" d="M 83.910156 197.9375 C 89.496094 209.917969 85.453125 221.515625 85.039062 222.617188 C 83.730469 222.171875 75.558594 219.316406 70.800781 209.085938 C 65.214844 197.105469 69.257812 185.507812 69.671875 184.4375 C 70.980469 184.855469 79.183594 187.707031 83.910156 197.9375 Z M 83.910156 197.9375 " fill-opacity="1" fill-rule="nonzero"/><path fill="#d14b62" d="M 198.339844 310.390625 L 198.339844 357.460938 C 198.339844 365.398438 191.800781 371.851562 183.746094 371.851562 L 138.09375 371.851562 C 130.128906 371.851562 123.707031 365.609375 123.527344 357.847656 C 124.957031 360.433594 150.160156 366.113281 170.9375 348.003906 C 184.996094 335.753906 197.003906 312.679688 198.339844 270.457031 Z M 198.339844 310.390625 " fill-opacity="1" fill-rule="nonzero"/><path fill="#80bebf" d="M 341.511719 106 L 325.433594 84.234375 C 322.609375 80.425781 318.386719 77.871094 313.75 77.125 C 315.535156 90.089844 316.753906 102.28125 317.40625 113.757812 L 326.234375 113.757812 L 326.234375 288.894531 L 240.753906 288.894531 C 217.628906 298.675781 198.339844 297.84375 198.339844 297.84375 L 198.339844 310.390625 L 326.886719 310.390625 C 336.875 310.390625 344.960938 302.421875 344.960938 292.582031 L 344.960938 116.464844 C 344.960938 112.71875 343.742188 109.0625 341.511719 106 Z M 341.511719 106 " fill-opacity="1" fill-rule="nonzero"/><path fill="#bc9dc6" d="M 326.234375 113.757812 L 326.234375 288.894531 L 240.753906 288.894531 C 277.699219 273.253906 324.363281 230.464844 317.40625 113.757812 Z M 326.234375 113.757812 " fill-opacity="1" fill-rule="nonzero"/><path fill="#9dcece" d="M 100.109375 240.335938 L 100.078125 240.335938 C 100.078125 242.628906 99.574219 248.691406 94.640625 253.242188 C 92.945312 254.789062 91.160156 255.800781 89.675781 256.421875 C 96.007812 247.085938 102.011719 235.3125 107.152344 220.445312 L 107.183594 220.445312 C 116.605469 214.082031 117.199219 203.496094 117.257812 202.367188 C 116.515625 202.1875 114.878906 201.863281 112.710938 201.714844 C 116.574219 186.398438 119.605469 168.5 121.476562 147.566406 L 129.710938 147.566406 L 129.710938 248.484375 C 125.9375 251.070312 123.5 255.382812 123.5 260.257812 L 123.5 285.832031 L 56.921875 285.832031 C 67.058594 281.042969 78.738281 272.359375 89.4375 256.75 C 90.953125 257.375 92.855469 258.386719 94.640625 260.023438 C 100.109375 265.046875 100.136719 271.886719 100.078125 273.519531 L 100.109375 273.519531 C 100.046875 271.886719 100.046875 265.046875 105.546875 260.023438 C 107.417969 258.296875 109.410156 257.257812 111.015625 256.632812 C 109.410156 256.007812 107.417969 254.964844 105.546875 253.242188 C 100.554688 248.691406 100.109375 242.65625 100.109375 240.335938 Z M 100.109375 240.335938 " fill-opacity="1" fill-rule="nonzero"/><path fill="#d6eae8" d="M 146.949219 122.976562 C 146.535156 121.015625 146 118.960938 145.316406 116.820312 C 142.671875 108.644531 138.894531 102.460938 135.953125 98.386719 L 123.5 98.386719 C 123.5 111.558594 123.113281 123.808594 122.371094 135.257812 C 122.132812 139.480469 121.835938 143.582031 121.476562 147.566406 L 129.710938 147.566406 L 129.710938 248.484375 C 131.523438 247.207031 133.632812 246.34375 135.953125 246.046875 C 136.636719 245.925781 137.351562 245.867188 138.09375 245.867188 L 148.4375 245.867188 L 148.4375 135.257812 C 148.347656 131.957031 147.992188 127.734375 146.949219 122.976562 Z M 146.949219 122.976562 " fill-opacity="1" fill-rule="nonzero"/><path fill="#d6eae8" d="M 56.921875 285.832031 C 41.703125 292.996094 29.902344 291.421875 29.902344 291.421875 C 29.902344 301.886719 38.523438 310.390625 49.195312 310.390625 L 123.5 310.390625 L 123.5 285.832031 Z M 56.921875 285.832031 " fill-opacity="1" fill-rule="nonzero"/><path fill="#3a322b" d="M 80.875 224.035156 C 78.226562 228.382812 75.882812 232.925781 73.921875 237.605469 C 70.941406 244.71875 68.78125 252.171875 67.492188 259.765625 C 67.21875 261.382812 68.308594 262.921875 69.929688 263.195312 C 70.097656 263.222656 70.261719 263.234375 70.425781 263.234375 C 71.851562 263.234375 73.109375 262.210938 73.355469 260.757812 C 74.566406 253.609375 76.601562 246.597656 79.402344 239.902344 C 81.390625 235.167969 83.792969 230.574219 86.523438 226.207031 C 88.371094 226.710938 91.097656 227.25 94.316406 227.25 C 98.640625 227.25 103.816406 226.273438 108.832031 222.902344 C 119.191406 215.929688 120.132812 204.671875 120.214844 202.484375 C 120.269531 201.066406 119.3125 199.808594 117.933594 199.480469 C 114.601562 198.679688 105.886719 197.332031 97.015625 202.109375 C 93.972656 203.742188 91.558594 205.765625 89.617188 207.890625 C 89.28125 204.378906 88.414062 200.554688 86.613281 196.683594 C 81.609375 185.914062 73.082031 182.417969 70.585938 181.605469 C 69.066406 181.101562 67.429688 181.902344 66.875 183.402344 C 66.363281 184.792969 62.058594 197.351562 68.101562 210.355469 C 71.71875 218.140625 77.183594 222.117188 80.875 224.035156 Z M 99.828125 207.347656 C 105.21875 204.453125 110.546875 204.390625 113.957031 204.800781 C 113.308594 208.171875 111.363281 214.03125 105.507812 217.96875 C 99.222656 222.199219 92.425781 221.496094 88.851562 220.664062 C 90.070312 217.078125 93.039062 210.996094 99.828125 207.347656 Z M 71.59375 188.519531 C 74.429688 190.082031 78.449219 193.21875 81.222656 199.1875 C 84.808594 206.90625 84.023438 214.417969 83.125 218.511719 C 80.285156 216.945312 76.261719 213.808594 73.496094 207.847656 C 69.902344 200.125 70.695312 192.609375 71.59375 188.519531 Z M 71.59375 188.519531 " fill-opacity="1" fill-rule="nonzero"/><g clip-path="url(#77052cf5ba)"><path fill="#3a322b" d="M 343.890625 104.234375 L 327.8125 82.457031 C 325.0625 78.734375 321.132812 76.085938 316.738281 74.800781 L 316.738281 65.039062 C 316.738281 59.769531 312.40625 55.480469 307.078125 55.480469 L 289.261719 55.480469 C 283.933594 55.480469 279.601562 59.769531 279.601562 65.039062 L 279.601562 72.761719 C 278.492188 72.3125 277.417969 71.773438 276.429688 71.066406 L 251.625 53.300781 C 248.003906 50.707031 243.730469 49.335938 239.261719 49.335938 L 179.003906 49.335938 C 167.394531 49.335938 157.945312 58.660156 157.945312 70.125 L 157.945312 242.90625 L 151.410156 242.90625 L 151.410156 135.199219 C 151.257812 128.648438 150.160156 122.164062 148.152344 115.921875 C 146.507812 110.820312 144.273438 105.949219 141.492188 101.367188 L 145.320312 101.367188 C 146.3125 101.367188 147.242188 100.871094 147.792969 100.046875 C 148.347656 99.21875 148.449219 98.171875 148.066406 97.253906 L 120.21875 30.203125 L 120.21875 3.148438 C 120.21875 1.507812 118.890625 0.175781 117.246094 0.175781 L 61.097656 0.175781 C 59.453125 0.175781 58.125 1.507812 58.125 3.148438 L 58.125 30.203125 L 30.277344 97.253906 C 29.898438 98.171875 30 99.21875 30.550781 100.046875 C 31.105469 100.871094 32.03125 101.367188 33.023438 101.367188 L 36.851562 101.367188 C 34.066406 105.949219 31.832031 110.824219 30.191406 115.921875 C 28.1875 122.152344 27.09375 128.640625 26.933594 135.265625 L 26.933594 291.410156 C 26.933594 303.519531 36.914062 313.375 49.183594 313.375 L 120.511719 313.375 L 120.511719 357.46875 C 120.511719 367.039062 128.394531 374.824219 138.085938 374.824219 L 183.746094 374.824219 C 193.4375 374.824219 201.316406 367.039062 201.316406 357.46875 L 201.316406 313.375 L 326.871094 313.375 C 338.480469 313.375 347.929688 304.050781 347.929688 292.585938 L 347.929688 116.480469 C 347.933594 112.050781 346.53125 107.816406 343.890625 104.234375 Z M 289.261719 61.425781 L 307.078125 61.425781 C 309.125 61.425781 310.792969 63.046875 310.792969 65.039062 L 310.792969 73.914062 L 285.542969 73.914062 L 285.542969 65.039062 C 285.542969 63.046875 287.210938 61.425781 289.261719 61.425781 Z M 182.882812 248.851562 L 182.898438 267.484375 L 176.371094 267.484375 L 176.371094 248.851562 Z M 188.84375 267.484375 L 188.828125 250.046875 C 192.691406 251.902344 195.375 255.761719 195.375 260.257812 L 195.375 267.484375 Z M 201.320312 260.257812 C 201.320312 259.210938 201.210938 258.195312 201.03125 257.199219 C 212.910156 254.519531 221.804688 246.578125 223.128906 237.070312 C 223.777344 232.453125 222.058594 228.472656 220.367188 225.53125 C 227.015625 221.828125 232.332031 216.195312 232.515625 209.082031 C 232.640625 204.105469 230.195312 199.933594 227.554688 196.871094 C 231.847656 191.539062 234.671875 185.339844 235.605469 178.695312 C 237.542969 164.902344 231.417969 146.839844 218.136719 141.710938 C 216.320312 141.011719 209.894531 138.953125 203.410156 141.753906 C 195.601562 145.128906 189.320312 154.824219 192.417969 163.882812 C 193.269531 166.363281 194.804688 168.675781 196.773438 170.597656 C 195.363281 172.300781 193.402344 174.171875 190.675781 175.675781 C 187.78125 177.277344 184.957031 177.964844 182.605469 178.230469 L 182.605469 116.734375 L 323.269531 116.734375 L 323.269531 285.921875 L 201.320312 285.921875 Z M 201.65625 174.042969 C 202.761719 174.578125 203.882812 174.921875 204.996094 175.179688 C 205.082031 178.074219 204.621094 182.101562 202.117188 185.847656 C 198.15625 191.773438 190.675781 194.851562 182.605469 194.09375 L 182.605469 184.210938 C 185.730469 183.933594 189.582031 183.074219 193.546875 180.882812 C 197.214844 178.859375 199.839844 176.308594 201.65625 174.042969 Z M 182.605469 200.082031 C 183.394531 200.144531 184.1875 200.195312 184.96875 200.195312 C 194.082031 200.195312 202.375 196.164062 207.0625 189.152344 C 210.382812 184.183594 211.039062 178.925781 210.945312 175.140625 C 211.230469 175.066406 211.535156 175.042969 211.8125 174.941406 C 216.707031 173.226562 221.101562 168.046875 219.988281 162.347656 C 219.226562 158.484375 216.050781 155.257812 211.695312 153.929688 C 210.121094 153.441406 208.464844 154.339844 207.984375 155.910156 C 207.507812 157.480469 208.394531 159.140625 209.964844 159.621094 C 212.179688 160.296875 213.824219 161.816406 214.152344 163.496094 C 214.640625 166.003906 211.976562 168.585938 209.84375 169.335938 C 208.242188 169.898438 206.238281 169.664062 204.210938 168.679688 C 201.351562 167.289062 198.988281 164.714844 198.046875 161.960938 C 196.105469 156.273438 200.519531 149.488281 205.773438 147.21875 C 210.199219 145.3125 214.726562 146.773438 216 147.265625 C 226.226562 151.210938 231.351562 166.277344 229.722656 177.871094 C 228.84375 184.132812 225.941406 189.953125 221.5 194.824219 C 221.46875 194.851562 221.429688 194.863281 221.394531 194.894531 C 221.355469 194.9375 221.34375 194.988281 221.308594 195.03125 C 216.804688 199.894531 210.761719 203.789062 203.640625 206.195312 C 202.089844 206.71875 201.253906 208.40625 201.777344 209.960938 C 202.199219 211.199219 203.355469 211.984375 204.59375 211.984375 C 204.910156 211.984375 205.230469 211.933594 205.542969 211.828125 C 212.53125 209.46875 218.621094 205.808594 223.480469 201.253906 C 225.191406 203.363281 226.648438 206.019531 226.574219 208.9375 C 226.375 216.78125 214.671875 223.613281 204.34375 224.484375 C 194.183594 225.363281 186.289062 220.003906 182.609375 216.882812 L 182.609375 200.082031 Z M 182.605469 224.261719 C 187.183594 227.3125 193.914062 230.519531 202.164062 230.519531 C 203.035156 230.519531 203.929688 230.484375 204.835938 230.40625 C 207.996094 230.140625 211.503906 229.316406 214.9375 228.035156 C 216.292969 230.3125 217.664062 233.214844 217.238281 236.253906 C 216.230469 243.511719 208.832031 249.621094 198.941406 251.585938 C 195.898438 246.40625 190.234375 242.90625 183.746094 242.90625 L 182.601562 242.90625 L 182.601562 224.261719 Z M 170.421875 267.484375 L 163.890625 267.484375 L 163.890625 248.851562 L 170.421875 248.851562 Z M 151.410156 267.484375 L 151.410156 248.851562 L 157.945312 248.851562 L 157.945312 267.484375 Z M 138.9375 267.484375 L 138.9375 248.851562 L 145.46875 248.851562 L 145.46875 267.484375 Z M 126.457031 267.484375 L 126.457031 260.257812 C 126.457031 255.769531 129.136719 251.914062 132.988281 250.054688 L 132.988281 267.484375 Z M 126.75 247.019531 C 122.941406 250.207031 120.511719 254.953125 120.511719 260.257812 L 120.511719 282.847656 L 51.59375 282.847656 L 51.59375 150.53125 L 126.75 150.53125 Z M 126.457031 291.867188 L 167.300781 291.867188 L 167.300781 344.296875 L 126.457031 344.296875 Z M 64.070312 6.121094 L 114.273438 6.121094 L 114.273438 27.828125 L 64.070312 27.828125 Z M 63.082031 33.773438 L 115.261719 33.773438 L 140.867188 95.421875 L 37.476562 95.421875 Z M 49.183594 307.425781 C 40.195312 307.425781 32.875 300.238281 32.875 291.410156 L 32.875 138.238281 L 61.097656 138.238281 C 62.742188 138.238281 64.070312 136.90625 64.070312 135.265625 C 64.070312 133.625 62.742188 132.292969 61.097656 132.292969 L 33.058594 132.292969 C 33.210938 130.164062 33.457031 128.046875 33.832031 125.949219 L 51.738281 125.949219 C 53.382812 125.949219 54.710938 124.617188 54.710938 122.976562 C 54.710938 121.335938 53.382812 120.003906 51.738281 120.003906 L 35.210938 120.003906 C 35.421875 119.25 35.609375 118.488281 35.851562 117.742188 C 37.722656 111.921875 40.472656 106.433594 43.964844 101.371094 L 134.375 101.371094 C 137.863281 106.429688 140.613281 111.917969 142.488281 117.746094 C 142.730469 118.492188 142.917969 119.25 143.128906 120.007812 L 126.597656 120.007812 C 124.957031 120.007812 123.628906 121.339844 123.628906 122.980469 C 123.628906 124.621094 124.957031 125.953125 126.597656 125.953125 L 144.511719 125.953125 C 144.886719 128.058594 145.132812 130.175781 145.285156 132.296875 L 117.242188 132.296875 C 115.597656 132.296875 114.269531 133.628906 114.269531 135.269531 C 114.269531 136.910156 115.597656 138.242188 117.242188 138.242188 L 145.464844 138.242188 L 145.464844 242.90625 L 138.085938 242.90625 C 136.203125 242.90625 134.394531 243.207031 132.695312 243.75 L 132.695312 147.5625 C 132.695312 145.917969 131.367188 144.585938 129.722656 144.585938 L 48.621094 144.585938 C 46.976562 144.585938 45.648438 145.917969 45.648438 147.5625 L 45.648438 285.824219 C 45.648438 287.464844 46.976562 288.796875 48.621094 288.796875 L 120.511719 288.796875 L 120.511719 307.433594 L 49.183594 307.433594 Z M 195.375 357.46875 C 195.375 363.761719 190.160156 368.878906 183.75 368.878906 L 138.085938 368.878906 C 131.671875 368.878906 126.457031 363.761719 126.457031 357.46875 L 126.457031 350.242188 L 170.273438 350.242188 C 171.917969 350.242188 173.246094 348.910156 173.246094 347.269531 L 173.246094 288.894531 C 173.246094 287.253906 171.917969 285.921875 170.273438 285.921875 L 126.457031 285.921875 L 126.457031 273.433594 L 195.375 273.433594 Z M 341.988281 292.585938 C 341.988281 300.769531 335.207031 307.425781 326.875 307.425781 L 201.320312 307.425781 L 201.320312 291.867188 L 326.242188 291.867188 C 327.886719 291.867188 329.214844 290.535156 329.214844 288.894531 L 329.214844 113.757812 C 329.214844 112.117188 327.886719 110.785156 326.242188 110.785156 L 179.632812 110.785156 C 177.988281 110.785156 176.660156 112.117188 176.660156 113.757812 L 176.660156 242.902344 L 163.890625 242.902344 L 163.890625 70.121094 C 163.890625 61.9375 170.667969 55.28125 179.003906 55.28125 L 239.257812 55.28125 C 242.480469 55.28125 245.558594 56.269531 248.164062 58.132812 L 272.964844 75.898438 C 275.824219 77.945312 279.09375 79.195312 282.542969 79.644531 C 282.550781 79.644531 282.5625 79.652344 282.570312 79.652344 C 282.574219 79.652344 282.578125 79.648438 282.582031 79.648438 C 283.492188 79.765625 284.402344 79.859375 285.332031 79.859375 L 310.792969 79.859375 C 315.621094 79.859375 320.191406 82.152344 323.027344 85.992188 L 339.105469 107.769531 C 340.988281 110.316406 341.984375 113.328125 341.984375 116.476562 L 341.984375 292.585938 Z M 341.988281 292.585938 " fill-opacity="1" fill-rule="nonzero"/></g><path fill="#3a322b" d="M 250.933594 78.660156 C 249.421875 75.546875 247.519531 72.617188 245.273438 69.949219 C 244.113281 68.5625 242.378906 67.769531 240.523438 67.769531 L 179.785156 67.769531 C 176.34375 67.769531 173.542969 70.546875 173.542969 73.964844 L 173.542969 85.960938 C 173.542969 89.375 176.339844 92.15625 179.785156 92.15625 L 247.160156 92.15625 C 249.167969 92.15625 251.066406 91.191406 252.242188 89.578125 C 253.40625 87.984375 253.726562 86.003906 253.128906 84.136719 C 252.527344 82.269531 251.789062 80.425781 250.933594 78.660156 Z M 247.160156 86.203125 L 179.785156 86.203125 C 179.621094 86.203125 179.488281 86.09375 179.488281 85.957031 L 179.488281 73.960938 C 179.488281 73.839844 179.605469 73.714844 179.785156 73.714844 L 240.722656 73.777344 C 242.652344 76.066406 244.289062 78.585938 245.589844 81.257812 C 246.324219 82.769531 246.957031 84.347656 247.441406 86.066406 C 247.402344 86.121094 247.316406 86.203125 247.160156 86.203125 Z M 247.160156 86.203125 " fill-opacity="1" fill-rule="nonzero"/><path fill="#3a322b" d="M 282.617188 211.910156 C 278.816406 211.152344 275.453125 211.511719 272.601562 212.960938 C 266.152344 216.230469 265.121094 223.496094 264.03125 231.183594 C 263.214844 236.9375 262.289062 243.460938 259.019531 249.175781 C 254.820312 256.511719 246.890625 262.128906 235.453125 265.867188 C 233.894531 266.375 233.039062 268.054688 233.550781 269.617188 C 233.960938 270.871094 235.125 271.667969 236.375 271.667969 C 236.679688 271.667969 236.992188 271.621094 237.300781 271.519531 C 250.179688 267.308594 259.222656 260.785156 264.175781 252.128906 C 268.011719 245.421875 269.023438 238.300781 269.914062 232.019531 C 270.960938 224.648438 271.777344 220.042969 275.289062 218.261719 C 276.925781 217.425781 279 217.253906 281.460938 217.742188 C 283.0625 218.070312 284.636719 217.015625 284.957031 215.402344 C 285.273438 213.789062 284.226562 212.226562 282.617188 211.910156 Z M 282.617188 211.910156 " fill-opacity="1" fill-rule="nonzero"/><path fill="#3a322b" d="M 244.949219 237.628906 C 247.78125 229.839844 247.8125 221.894531 247.839844 214.878906 C 247.871094 205.695312 248.105469 199.917969 252.285156 197 C 254.015625 195.792969 256.253906 195.179688 258.933594 195.179688 C 259.027344 195.179688 259.132812 195.179688 259.210938 195.179688 C 260.832031 195.179688 262.160156 193.875 262.183594 192.246094 C 262.203125 190.605469 260.890625 189.253906 259.253906 189.234375 C 255.109375 189.203125 251.710938 190.152344 248.886719 192.121094 C 241.960938 196.953125 241.925781 205.648438 241.894531 214.855469 C 241.867188 221.382812 241.839844 228.78125 239.363281 235.59375 C 235.648438 245.789062 226.402344 254.480469 211.871094 261.433594 C 210.390625 262.144531 209.761719 263.917969 210.46875 265.402344 C 210.980469 266.46875 212.042969 267.089844 213.152344 267.089844 C 213.585938 267.089844 214.019531 266.996094 214.433594 266.796875 C 230.417969 259.152344 240.683594 249.339844 244.949219 237.628906 Z M 244.949219 237.628906 " fill-opacity="1" fill-rule="nonzero"/><path fill="#3a322b" d="M 304.71875 130.402344 C 303.296875 129.972656 301.964844 129.949219 300.808594 130.105469 C 299.542969 127.964844 297.402344 126.503906 294.855469 126.144531 C 291.417969 125.671875 287.929688 127.324219 286.027344 130.40625 C 286.015625 130.421875 285.875 130.652344 285.867188 130.671875 C 283.40625 134.859375 283.691406 139.042969 284.183594 141.441406 C 282.746094 142.421875 281.585938 143.828125 280.984375 145.582031 L 280.859375 145.941406 C 280.136719 148.046875 280.28125 150.304688 281.269531 152.304688 C 282.265625 154.324219 284.003906 155.832031 286.152344 156.550781 L 295.128906 159.542969 C 296.015625 159.839844 296.917969 159.976562 297.804688 159.976562 C 301.320312 159.976562 304.609375 157.785156 305.800781 154.3125 L 305.914062 153.980469 C 306.328125 152.777344 306.425781 151.523438 306.277344 150.296875 C 310.503906 146.816406 312.492188 141.878906 311.261719 137.460938 C 310.886719 136.148438 309.324219 131.789062 304.71875 130.402344 Z M 303.003906 136.09375 C 304.761719 136.625 305.421875 138.671875 305.539062 139.066406 C 306.035156 140.847656 305.152344 143.066406 303.363281 144.902344 C 302.5625 144.238281 301.644531 143.703125 300.625 143.367188 L 299.441406 142.96875 C 300.949219 140.882812 301.878906 138.457031 302.042969 135.972656 C 302.351562 135.96875 302.671875 135.996094 303.003906 136.09375 Z M 291.089844 133.523438 C 291.886719 132.230469 293.117188 131.890625 294.027344 132.035156 C 294.59375 132.117188 295.605469 132.449219 296.003906 133.863281 C 296.628906 136.222656 295.503906 139.074219 293.339844 140.9375 L 291.648438 140.378906 C 291.089844 140.191406 290.527344 140.066406 289.960938 140.003906 C 289.707031 138.535156 289.609375 136.035156 291.089844 133.523438 Z M 300.289062 152.046875 L 300.175781 152.382812 C 299.738281 153.652344 298.316406 154.332031 297.003906 153.898438 L 288.03125 150.902344 C 287.398438 150.691406 286.886719 150.253906 286.597656 149.664062 C 286.316406 149.101562 286.277344 148.460938 286.476562 147.886719 L 286.601562 147.527344 C 286.878906 146.714844 287.566406 146.164062 288.367188 145.96875 C 288.476562 145.945312 288.589844 145.96875 288.699219 145.929688 C 288.707031 145.925781 288.714844 145.917969 288.71875 145.917969 C 288.800781 145.90625 288.878906 145.882812 288.964844 145.882812 C 289.234375 145.882812 289.507812 145.921875 289.773438 146.011719 L 298.746094 149.003906 C 299.359375 149.207031 299.847656 149.632812 300.140625 150.191406 C 300.175781 150.269531 300.195312 150.351562 300.234375 150.429688 C 300.429688 150.949219 300.472656 151.511719 300.289062 152.046875 Z M 300.289062 152.046875 " fill-opacity="1" fill-rule="nonzero"/><path fill="#3a322b" d="M 305.726562 187.898438 C 305.121094 186.136719 303.964844 184.730469 302.523438 183.746094 C 303.007812 181.355469 303.300781 177.164062 300.839844 172.972656 C 300.828125 172.953125 300.683594 172.714844 300.671875 172.699219 C 298.777344 169.628906 295.3125 167.945312 291.851562 168.445312 C 289.324219 168.800781 287.199219 170.238281 285.90625 172.421875 C 284.746094 172.265625 283.414062 172.273438 281.984375 172.703125 C 278.296875 173.816406 276.183594 177.085938 275.441406 179.769531 C 274.214844 184.175781 276.195312 189.109375 280.425781 192.589844 C 280.277344 193.820312 280.375 195.066406 280.785156 196.269531 L 280.90625 196.613281 C 282.097656 200.082031 285.390625 202.273438 288.898438 202.273438 C 289.789062 202.273438 290.691406 202.132812 291.578125 201.835938 L 300.550781 198.84375 C 302.703125 198.125 304.4375 196.617188 305.4375 194.59375 C 306.421875 192.597656 306.566406 190.335938 305.84375 188.242188 Z M 292.675781 174.332031 C 293.578125 174.207031 294.816406 174.53125 295.710938 175.984375 C 297.121094 178.382812 297 180.855469 296.746094 182.296875 C 296.179688 182.363281 295.613281 182.484375 295.054688 182.671875 L 293.363281 183.234375 C 291.199219 181.371094 290.074219 178.511719 290.71875 176.089844 C 291.097656 174.746094 292.109375 174.414062 292.675781 174.332031 Z M 281.167969 181.367188 C 281.234375 181.117188 281.890625 178.945312 283.703125 178.398438 C 284.023438 178.300781 284.339844 178.273438 284.640625 178.277344 C 284.804688 180.734375 285.734375 183.171875 287.261719 185.273438 L 286.082031 185.664062 C 285.058594 186.007812 284.144531 186.535156 283.34375 187.203125 C 281.554688 185.367188 280.671875 183.148438 281.167969 181.367188 Z M 300.105469 191.964844 C 299.816406 192.550781 299.304688 192.988281 298.671875 193.203125 L 289.699219 196.195312 C 288.390625 196.632812 286.960938 195.953125 286.527344 194.683594 L 286.410156 194.339844 C 286.226562 193.816406 286.273438 193.261719 286.472656 192.75 C 286.515625 192.664062 286.539062 192.574219 286.574219 192.488281 C 286.867188 191.933594 287.355469 191.511719 287.964844 191.308594 L 296.9375 188.316406 C 297.207031 188.226562 297.480469 188.183594 297.75 188.183594 C 297.828125 188.183594 297.898438 188.210938 297.976562 188.21875 C 297.988281 188.222656 297.992188 188.226562 298 188.230469 C 298.140625 188.277344 298.28125 188.261719 298.421875 188.285156 C 299.1875 188.496094 299.839844 189.042969 300.105469 189.828125 L 300.226562 190.171875 C 300.425781 190.765625 300.386719 191.402344 300.105469 191.964844 Z M 300.105469 191.964844 " fill-opacity="1" fill-rule="nonzero"/><path fill="#3a322b" d="M 250.902344 160.863281 C 250.753906 162.09375 250.847656 163.339844 251.261719 164.546875 L 251.378906 164.890625 C 252.570312 168.355469 255.863281 170.546875 259.371094 170.546875 C 260.261719 170.546875 261.167969 170.410156 262.050781 170.113281 L 271.027344 167.121094 C 273.175781 166.402344 274.910156 164.894531 275.910156 162.878906 C 276.894531 160.882812 277.042969 158.621094 276.320312 156.515625 L 276.199219 156.171875 C 275.597656 154.410156 274.433594 153.003906 272.992188 152.019531 C 273.453125 149.703125 273.773438 145.4375 271.324219 141.269531 C 271.308594 141.242188 271.15625 141 271.140625 140.972656 C 269.242188 137.902344 265.78125 136.242188 262.316406 136.71875 C 259.792969 137.078125 257.671875 138.511719 256.382812 140.683594 C 255.222656 140.527344 253.882812 140.546875 252.457031 140.976562 C 247.820312 142.375 246.277344 146.742188 245.917969 148.042969 C 244.6875 152.449219 246.675781 157.382812 250.902344 160.863281 Z M 270.582031 160.242188 C 270.292969 160.828125 269.78125 161.265625 269.148438 161.480469 L 260.175781 164.472656 C 258.863281 164.910156 257.441406 164.226562 257.003906 162.960938 L 256.886719 162.617188 C 256.707031 162.09375 256.75 161.546875 256.941406 161.039062 C 256.992188 160.949219 257.015625 160.851562 257.050781 160.761719 C 257.347656 160.210938 257.828125 159.789062 258.4375 159.582031 L 267.410156 156.589844 C 267.679688 156.503906 267.953125 156.460938 268.222656 156.460938 C 268.304688 156.460938 268.378906 156.492188 268.460938 156.496094 C 268.46875 156.5 268.476562 156.503906 268.484375 156.507812 C 268.59375 156.542969 268.707031 156.527344 268.816406 156.550781 C 269.617188 156.742188 270.300781 157.292969 270.578125 158.101562 L 270.699219 158.445312 C 270.902344 159.039062 270.859375 159.679688 270.582031 160.242188 Z M 263.148438 142.605469 C 264.050781 142.484375 265.292969 142.804688 266.1875 144.257812 C 267.59375 146.65625 267.460938 149.148438 267.214844 150.574219 C 266.652344 150.636719 266.085938 150.761719 265.523438 150.949219 L 263.835938 151.511719 C 261.671875 149.644531 260.546875 146.785156 261.195312 144.363281 C 261.570312 143.023438 262.578125 142.6875 263.148438 142.605469 Z M 251.644531 149.640625 C 251.710938 149.394531 252.367188 147.214844 254.179688 146.671875 C 254.5 146.578125 254.816406 146.546875 255.117188 146.550781 C 255.28125 149.007812 256.210938 151.449219 257.738281 153.546875 L 256.558594 153.9375 C 255.539062 154.28125 254.621094 154.808594 253.824219 155.476562 C 252.03125 153.640625 251.148438 151.421875 251.644531 149.640625 Z M 251.644531 149.640625 " fill-opacity="1" fill-rule="nonzero"/><path fill="#3a322b" d="M 88.074219 176.4375 C 89.808594 177.125 91.335938 178.070312 92.621094 179.25 C 96.4375 182.746094 97.070312 187.382812 97.113281 189.789062 C 97.113281 189.996094 97.113281 190.191406 97.113281 190.371094 C 97.113281 190.414062 97.113281 190.449219 97.113281 190.488281 C 97.089844 191.292969 97.398438 192.070312 97.957031 192.648438 C 98.515625 193.222656 99.289062 193.546875 100.09375 193.546875 C 100.898438 193.546875 101.664062 193.222656 102.222656 192.648438 C 102.78125 192.070312 103.085938 191.292969 103.066406 190.488281 C 103.0625 190.449219 103.0625 190.414062 103.0625 190.371094 C 103.0625 190.191406 103.066406 189.996094 103.0625 189.792969 C 103.105469 187.382812 103.738281 182.746094 107.558594 179.25 C 108.84375 178.070312 110.367188 177.128906 112.105469 176.441406 C 113.234375 175.992188 113.980469 174.894531 113.980469 173.679688 C 113.980469 172.464844 113.234375 171.367188 112.105469 170.914062 C 110.367188 170.222656 108.835938 169.277344 107.554688 168.105469 C 103.738281 164.609375 103.105469 159.96875 103.0625 157.5625 C 103.066406 157.351562 103.0625 157.160156 103.0625 156.976562 C 103.0625 156.9375 103.0625 156.902344 103.066406 156.863281 C 103.113281 155.21875 101.816406 153.851562 100.175781 153.804688 C 100.148438 153.804688 100.117188 153.804688 100.089844 153.804688 C 100.085938 153.804688 100.085938 153.804688 100.085938 153.804688 C 100.058594 153.804688 100.027344 153.804688 100 153.804688 C 98.359375 153.851562 97.066406 155.21875 97.113281 156.863281 C 97.113281 156.902344 97.113281 156.9375 97.113281 156.976562 C 97.113281 157.160156 97.113281 157.351562 97.113281 157.5625 C 97.070312 159.96875 96.4375 164.609375 92.621094 168.105469 C 91.335938 169.277344 89.808594 170.222656 88.074219 170.914062 C 86.941406 171.363281 86.199219 172.460938 86.199219 173.679688 C 86.199219 174.898438 86.941406 175.988281 88.074219 176.4375 Z M 96.632812 172.488281 C 98.082031 171.15625 99.210938 169.726562 100.085938 168.277344 C 100.96875 169.726562 102.09375 171.15625 103.542969 172.488281 C 103.996094 172.902344 104.472656 173.300781 104.96875 173.671875 C 104.472656 174.046875 103.996094 174.445312 103.542969 174.859375 C 102.09375 176.1875 100.96875 177.621094 100.089844 179.070312 C 99.214844 177.621094 98.082031 176.1875 96.636719 174.859375 C 96.179688 174.445312 95.707031 174.046875 95.210938 173.671875 C 95.707031 173.300781 96.179688 172.902344 96.632812 172.488281 Z M 96.632812 172.488281 " fill-opacity="1" fill-rule="nonzero"/><path fill="#3a322b" d="M 112.105469 253.871094 C 110.367188 253.179688 108.835938 252.234375 107.554688 251.058594 C 103.738281 247.5625 103.105469 242.925781 103.0625 240.519531 C 103.066406 240.3125 103.0625 240.117188 103.0625 239.9375 C 103.0625 239.894531 103.0625 239.859375 103.066406 239.820312 C 103.113281 238.179688 101.816406 236.8125 100.175781 236.761719 C 100.148438 236.761719 100.117188 236.761719 100.089844 236.761719 C 100.085938 236.761719 100.085938 236.761719 100.085938 236.761719 C 100.058594 236.761719 100.027344 236.761719 100 236.761719 C 98.359375 236.8125 97.066406 238.179688 97.113281 239.820312 C 97.113281 239.859375 97.113281 239.894531 97.113281 239.9375 C 97.113281 240.117188 97.113281 240.3125 97.113281 240.519531 C 97.070312 242.925781 96.4375 247.566406 92.621094 251.058594 C 91.335938 252.234375 89.808594 253.179688 88.074219 253.871094 C 86.941406 254.320312 86.199219 255.414062 86.199219 256.632812 C 86.199219 257.847656 86.941406 258.945312 88.074219 259.394531 C 89.808594 260.085938 91.339844 261.03125 92.621094 262.203125 C 96.4375 265.699219 97.070312 270.339844 97.113281 272.746094 C 97.113281 272.953125 97.113281 273.144531 97.113281 273.328125 C 97.113281 273.371094 97.113281 273.40625 97.113281 273.445312 C 97.089844 274.246094 97.398438 275.027344 97.957031 275.601562 C 98.515625 276.175781 99.289062 276.503906 100.09375 276.503906 C 100.898438 276.503906 101.664062 276.179688 102.222656 275.601562 C 102.78125 275.027344 103.085938 274.246094 103.066406 273.445312 C 103.0625 273.40625 103.0625 273.371094 103.0625 273.328125 C 103.0625 273.144531 103.066406 272.953125 103.0625 272.746094 C 103.105469 270.335938 103.738281 265.699219 107.554688 262.203125 C 108.839844 261.03125 110.367188 260.085938 112.105469 259.394531 C 113.234375 258.945312 113.980469 257.847656 113.980469 256.632812 C 113.980469 255.414062 113.234375 254.320312 112.105469 253.871094 Z M 103.542969 257.816406 C 102.09375 259.148438 100.96875 260.578125 100.089844 262.027344 C 99.210938 260.578125 98.082031 259.148438 96.632812 257.816406 C 96.179688 257.402344 95.703125 257.007812 95.210938 256.632812 C 95.707031 256.257812 96.179688 255.863281 96.632812 255.445312 C 98.082031 254.117188 99.210938 252.6875 100.085938 251.234375 C 100.96875 252.6875 102.09375 254.117188 103.542969 255.445312 C 103.996094 255.863281 104.472656 256.257812 104.96875 256.632812 C 104.472656 257.007812 104 257.402344 103.542969 257.816406 Z M 103.542969 257.816406 " fill-opacity="1" fill-rule="nonzero"/></svg>