<svg xmlns="http://www.w3.org/2000/svg" xmlns:xlink="http://www.w3.org/1999/xlink" width="500" zoomAndPan="magnify" viewBox="0 0 375 374.999991" height="500" preserveAspectRatio="xMidYMid meet" version="1.0"><defs><clipPath id="1b798d274f"><path d="M 0 1.023438 L 375 1.023438 L 375 371 L 0 371 Z M 0 1.023438 " clip-rule="nonzero"/></clipPath></defs><path fill="#000000" d="M 4.429688 182.964844 C 9.292969 190.445312 60.6875 212.425781 75.730469 207.863281 C 81.414062 202.179688 80.890625 176.160156 84.257812 169.503906 C 92.492188 195.386719 74.828125 336.402344 74.308594 358.46875 C 96.242188 373.800781 259.84375 372.152344 298.3125 363.027344 C 304.222656 354.652344 284.097656 230.542969 286.117188 173.765625 C 290.003906 179.457031 292.226562 194.378906 293.222656 200.761719 C 309.089844 205.324219 366.769531 192.238281 371.035156 185.132812 C 371.179688 170.921875 331.605469 61.527344 321.652344 55.84375 C 310.46875 46.214844 242.773438 22.914062 233.144531 12.292969 C 230.921875 11.050781 229.167969 7.910156 227.933594 6.117188 C 216.820312 11.230469 162.054688 13.234375 151.863281 5.261719 C 149.402344 8.210938 149.664062 10.09375 145.957031 11.792969 C 138.851562 11.792969 76.113281 41.558594 55.230469 58.386719 C 40.160156 76.253906 1.8125 173.917969 4.429688 182.964844 Z M 4.429688 182.964844 " fill-opacity="1" fill-rule="evenodd"/><g clip-path="url(#1b798d274f)"><path fill="#000000" d="M 151.105469 1.011719 C 140.230469 16.34375 110.957031 21.59375 92.882812 33.933594 C 75.03125 44.851562 51.628906 51.378906 43.167969 72.4375 C 25.855469 107.578125 9.808594 141.105469 0.5 179.238281 C 6.554688 197.433594 33.148438 200.398438 49.367188 207.738281 C 54.820312 209.171875 66.113281 212.359375 73.285156 210.6875 C 79.066406 205.535156 80.734375 195.527344 83.652344 178.21875 C 91.605469 211.925781 73.132812 306.554688 70.75 359.515625 C 85.601562 371.851562 114.886719 367.796875 136.542969 370.277344 C 190.824219 372.042969 253.441406 369.304688 303.714844 367.382812 C 301.445312 349.230469 298.789062 325.925781 299.191406 306.800781 C 295.679688 272.035156 289.6875 238.679688 287.917969 203.765625 C 286.789062 201.421875 287.121094 188.089844 286.363281 181.460938 C 291.175781 191.535156 294.195312 203.441406 294.261719 205.644531 C 304.835938 203.785156 339.785156 199.296875 349.382812 197.320312 C 359.574219 196.738281 369.042969 195.46875 374.425781 191.332031 C 374.238281 186.5 371.355469 177.410156 369.375 162.570312 C 357.324219 126.035156 345.484375 88.855469 326.503906 55.261719 C 308.75 40.117188 282.882812 36.90625 262.21875 26.324219 C 244.015625 21.183594 237.792969 11.691406 225.316406 4.328125 C 202.34375 10.707031 178.019531 13.269531 151.105469 1.007812 Z M 152.929688 8.535156 C 176.441406 15.429688 202.230469 14.527344 226.039062 9.71875 C 242.617188 27.328125 269.066406 30.566406 290.21875 41.285156 C 311.832031 47.558594 330.929688 63.285156 335.988281 86.269531 C 348.699219 117.886719 361.585938 153.285156 368.921875 186.617188 C 346.945312 196.296875 320.085938 197.90625 296.039062 196.898438 C 298.335938 184.765625 281.832031 155.066406 282.003906 181.570312 C 282.121094 241.042969 296.929688 303.292969 297.972656 362.652344 C 239.011719 366.964844 174.738281 368.898438 115.40625 365.125 C 94.925781 364.03125 66.75 361.128906 79.0625 333.003906 C 83.148438 280.574219 91.980469 227.308594 88.894531 174.644531 C 78.839844 149.097656 77.503906 194.863281 73.246094 203.839844 C 49.910156 203.332031 24.246094 195.347656 4.90625 182.851562 C 14.445312 144.273438 32.027344 104.585938 50.027344 69.21875 C 61.714844 49.046875 86.746094 43.085938 105.726562 31.457031 C 119.851562 22.128906 140.46875 19.101562 152.933594 8.535156 Z M 152.929688 8.535156 " fill-opacity="1" fill-rule="evenodd"/></g></svg>