<svg xmlns="http://www.w3.org/2000/svg" xmlns:xlink="http://www.w3.org/1999/xlink" width="500" zoomAndPan="magnify" viewBox="0 0 375 374.999991" height="500" preserveAspectRatio="xMidYMid meet" version="1.0"><defs><clipPath id="fe52ea8fc4"><path d="M 0 2.046875 L 374 2.046875 L 374 373.296875 L 0 373.296875 Z M 0 2.046875 " clip-rule="nonzero"/></clipPath><clipPath id="ec5d8251bd"><path d="M 0 2.046875 L 374 2.046875 L 374 373.296875 L 0 373.296875 Z M 0 2.046875 " clip-rule="nonzero"/></clipPath></defs><g clip-path="url(#fe52ea8fc4)"><path fill="#034249" d="M 372.359375 274.679688 C 370.773438 257.683594 356.035156 241.441406 332.871094 231.105469 L 332.871094 60.257812 C 332.871094 59.871094 332.660156 59.503906 332.324219 59.300781 L 306.320312 43.734375 L 306.320312 21.691406 L 221.925781 11.324219 L 221.925781 33.832031 L 191.566406 66.628906 C 191.375 66.839844 191.277344 67.109375 191.277344 67.382812 L 191.269531 67.382812 L 191.269531 71.914062 C 190.066406 70.28125 188.800781 68.703125 187.484375 67.210938 L 177.242188 55.550781 C 171.042969 48.5 167.484375 38.726562 167.476562 28.734375 C 170.570312 27.273438 172.195312 25.507812 172.195312 23.554688 L 172.195312 11.390625 C 172.195312 5.417969 156.933594 2.199219 142.566406 2.199219 C 128.203125 2.199219 112.933594 5.417969 112.933594 11.390625 L 112.933594 23.570312 C 112.933594 25.867188 115.199219 27.917969 119.492188 29.511719 C 119.3125 39.234375 115.789062 48.6875 109.75 55.566406 L 99.496094 67.226562 C 89.746094 78.320312 83.710938 92.078125 82.035156 107.007812 C 82.027344 107.046875 82.027344 107.089844 82.019531 107.128906 L 82.019531 107.15625 C 81.753906 109.574219 81.601562 112.039062 81.566406 114.492188 C 78.894531 114.261719 76.105469 114.140625 73.226562 114.140625 C 58.863281 114.140625 43.59375 117.359375 43.59375 123.324219 L 43.59375 135.503906 C 43.59375 137.792969 45.859375 139.835938 50.152344 141.4375 C 49.949219 146.40625 47.863281 151.226562 44.34375 154.746094 L 38.0625 161.03125 C 30.859375 168.242188 26.890625 177.820312 26.890625 188.007812 L 26.890625 254.996094 L 0.90625 259.6875 L 0.90625 259.695312 C 0.792969 259.71875 0.679688 259.746094 0.574219 259.808594 C 0.222656 259.996094 0 260.367188 0 260.78125 L 0 350.707031 C 0 351.082031 0.1875 351.433594 0.5 351.644531 L 32.878906 372.96875 L 32.886719 372.960938 C 33.066406 373.082031 33.273438 373.15625 33.492188 373.15625 C 33.566406 373.15625 33.648438 373.148438 33.722656 373.132812 L 165.746094 344.707031 C 166.265625 344.59375 166.628906 344.136719 166.628906 343.613281 L 166.628906 326.617188 C 170.757812 326.800781 174.894531 326.898438 178.960938 326.898438 C 189.847656 326.898438 200.324219 326.257812 210.132812 325.007812 L 210.132812 339.632812 C 210.132812 340.246094 210.636719 340.746094 211.25 340.746094 L 367.433594 340.746094 C 367.890625 340.746094 368.300781 340.46875 368.464844 340.042969 C 374.535156 324.847656 374.976562 285.269531 372.359375 274.679688 Z M 372.359375 274.679688 " fill-opacity="1" fill-rule="nonzero"/></g><path fill="#ffdb3f" d="M 371.261719 274.875 C 373.8125 285.007812 373.371094 324.75 367.425781 339.632812 L 211.242188 339.632812 L 211.242188 278.527344 Z M 358.839844 292.679688 C 358.839844 289.941406 356.621094 287.726562 353.882812 287.726562 C 351.148438 287.726562 348.933594 289.941406 348.933594 292.679688 C 348.933594 295.417969 351.148438 297.640625 353.882812 297.640625 C 356.621094 297.640625 358.839844 295.417969 358.839844 292.679688 Z M 338.359375 302.101562 C 338.359375 297.082031 334.292969 293.007812 329.273438 293.007812 C 324.257812 293.007812 320.1875 297.082031 320.1875 302.101562 C 320.1875 307.125 324.257812 311.195312 329.273438 311.195312 C 334.292969 311.195312 338.359375 307.125 338.359375 302.101562 Z M 329.777344 322.566406 C 329.777344 319.347656 327.164062 316.734375 323.957031 316.734375 C 320.742188 316.734375 318.132812 319.347656 318.132812 322.566406 C 318.132812 325.777344 320.742188 328.390625 323.957031 328.390625 C 327.164062 328.390625 329.777344 325.777344 329.777344 322.566406 Z M 312.351562 308.144531 C 312.351562 306.496094 311.023438 305.164062 309.375 305.164062 C 307.730469 305.164062 306.402344 306.496094 306.402344 308.144531 C 306.402344 309.789062 307.730469 311.121094 309.375 311.121094 C 311.023438 311.113281 312.351562 309.78125 312.351562 308.144531 Z M 295.589844 313.015625 C 295.589844 309.738281 292.925781 307.066406 289.644531 307.066406 C 286.359375 307.066406 283.699219 309.738281 283.699219 313.015625 C 283.699219 316.300781 286.359375 318.964844 289.644531 318.964844 C 292.925781 318.964844 295.589844 316.300781 295.589844 313.015625 Z M 289.023438 328.121094 C 289.023438 325.042969 286.53125 322.566406 283.472656 322.566406 C 280.402344 322.566406 277.925781 325.050781 277.925781 328.121094 C 277.925781 331.1875 280.410156 333.671875 283.472656 333.671875 C 286.53125 333.679688 289.023438 331.1875 289.023438 328.121094 Z M 272.304688 317.3125 C 272.304688 313.015625 268.824219 309.542969 264.542969 309.542969 C 260.25 309.542969 256.773438 313.015625 256.773438 317.3125 C 256.773438 321.609375 260.25 325.082031 264.542969 325.082031 C 268.820312 325.082031 272.304688 321.609375 272.304688 317.3125 Z M 253.976562 297.640625 C 253.976562 294.265625 251.230469 291.527344 247.859375 291.527344 C 244.488281 291.527344 241.75 294.265625 241.75 297.640625 C 241.75 301.019531 244.488281 303.757812 247.859375 303.757812 C 251.230469 303.757812 253.976562 301.019531 253.976562 297.640625 Z M 253.976562 297.640625 " fill-opacity="1" fill-rule="nonzero"/><path fill="#ffdb3f" d="M 371.261719 274.875 L 211.242188 278.527344 L 244.734375 261.527344 L 289.636719 238.746094 L 314.625 226.066406 C 320.390625 227.4375 326.195312 229.382812 331.765625 231.828125 C 352.195312 240.773438 369.59375 256.410156 371.261719 274.875 Z M 371.261719 274.875 " fill-opacity="1" fill-rule="nonzero"/><path fill="#ffdb3f" d="M 353.882812 287.726562 C 356.621094 287.726562 358.839844 289.941406 358.839844 292.679688 C 358.839844 295.417969 356.621094 297.640625 353.882812 297.640625 C 351.148438 297.640625 348.933594 295.417969 348.933594 292.679688 C 348.933594 289.941406 351.152344 287.726562 353.882812 287.726562 Z M 353.882812 287.726562 " fill-opacity="1" fill-rule="nonzero"/><path fill="#ffdb3f" d="M 338.359375 302.101562 C 338.359375 302.699219 338.300781 303.292969 338.183594 303.878906 C 338.070312 304.464844 337.898438 305.03125 337.667969 305.582031 C 337.441406 306.136719 337.160156 306.660156 336.828125 307.15625 C 336.496094 307.652344 336.121094 308.113281 335.699219 308.535156 C 335.277344 308.957031 334.816406 309.332031 334.320312 309.664062 C 333.824219 309.996094 333.300781 310.277344 332.75 310.503906 C 332.199219 310.734375 331.632812 310.90625 331.046875 311.023438 C 330.460938 311.140625 329.871094 311.195312 329.273438 311.195312 C 328.679688 311.195312 328.085938 311.140625 327.503906 311.023438 C 326.917969 310.90625 326.347656 310.734375 325.796875 310.503906 C 325.246094 310.277344 324.722656 309.996094 324.226562 309.664062 C 323.730469 309.332031 323.273438 308.957031 322.851562 308.535156 C 322.429688 308.113281 322.050781 307.652344 321.71875 307.15625 C 321.390625 306.660156 321.109375 306.136719 320.882812 305.582031 C 320.652344 305.03125 320.480469 304.464844 320.363281 303.878906 C 320.246094 303.292969 320.1875 302.699219 320.1875 302.101562 C 320.1875 301.507812 320.246094 300.914062 320.363281 300.328125 C 320.480469 299.742188 320.652344 299.175781 320.882812 298.625 C 321.109375 298.070312 321.390625 297.546875 321.71875 297.050781 C 322.050781 296.554688 322.429688 296.09375 322.851562 295.671875 C 323.273438 295.25 323.730469 294.875 324.226562 294.542969 C 324.722656 294.210938 325.246094 293.929688 325.796875 293.703125 C 326.347656 293.472656 326.917969 293.300781 327.503906 293.183594 C 328.085938 293.066406 328.679688 293.007812 329.273438 293.007812 C 329.871094 293.007812 330.460938 293.066406 331.046875 293.183594 C 331.632812 293.300781 332.199219 293.472656 332.75 293.703125 C 333.300781 293.929688 333.824219 294.210938 334.320312 294.542969 C 334.816406 294.875 335.277344 295.25 335.699219 295.671875 C 336.121094 296.09375 336.496094 296.554688 336.828125 297.050781 C 337.160156 297.546875 337.441406 298.070312 337.667969 298.625 C 337.898438 299.175781 338.070312 299.742188 338.183594 300.328125 C 338.300781 300.914062 338.359375 301.507812 338.359375 302.101562 Z M 338.359375 302.101562 " fill-opacity="1" fill-rule="nonzero"/><path fill="#00cdfa" d="M 331.757812 60.257812 L 331.757812 231.828125 C 326.1875 229.382812 320.382812 227.4375 314.617188 226.066406 L 289.628906 238.746094 L 289.492188 238.476562 L 289.492188 79.324219 L 305.203125 44.363281 Z M 331.757812 60.257812 " fill-opacity="1" fill-rule="nonzero"/><path fill="#ffdb3f" d="M 323.957031 316.734375 C 327.164062 316.734375 329.777344 319.347656 329.777344 322.566406 C 329.777344 325.777344 327.164062 328.390625 323.957031 328.390625 C 320.742188 328.390625 318.132812 325.777344 318.132812 322.566406 C 318.125 319.339844 320.734375 316.734375 323.957031 316.734375 Z M 323.957031 316.734375 " fill-opacity="1" fill-rule="nonzero"/><path fill="#ffdb3f" d="M 312.359375 308.144531 C 312.359375 308.539062 312.285156 308.917969 312.132812 309.285156 C 311.984375 309.648438 311.769531 309.96875 311.488281 310.25 C 311.210938 310.527344 310.886719 310.746094 310.523438 310.894531 C 310.160156 311.046875 309.777344 311.121094 309.382812 311.121094 C 308.988281 311.121094 308.609375 311.046875 308.246094 310.894531 C 307.878906 310.746094 307.558594 310.527344 307.28125 310.25 C 307 309.96875 306.785156 309.648438 306.632812 309.285156 C 306.484375 308.917969 306.410156 308.539062 306.410156 308.144531 C 306.410156 307.75 306.484375 307.367188 306.632812 307.003906 C 306.785156 306.636719 307 306.316406 307.28125 306.035156 C 307.558594 305.757812 307.878906 305.542969 308.246094 305.390625 C 308.609375 305.238281 308.988281 305.164062 309.382812 305.164062 C 309.777344 305.164062 310.160156 305.238281 310.523438 305.390625 C 310.886719 305.542969 311.210938 305.757812 311.488281 306.035156 C 311.769531 306.316406 311.984375 306.636719 312.132812 307.003906 C 312.285156 307.367188 312.359375 307.75 312.359375 308.144531 Z M 312.359375 308.144531 " fill-opacity="1" fill-rule="nonzero"/><path fill="#c1ecfe" d="M 305.210938 22.679688 L 305.210938 44.371094 L 223.039062 34.273438 L 223.039062 12.589844 Z M 305.210938 22.679688 " fill-opacity="1" fill-rule="nonzero"/><path fill="#00cdfa" d="M 305.210938 44.371094 L 289.5 79.324219 L 192.382812 67.390625 L 223.039062 34.273438 Z M 305.210938 44.371094 " fill-opacity="1" fill-rule="nonzero"/><path fill="#ffdb3f" d="M 295.589844 313.015625 C 295.589844 313.40625 295.550781 313.792969 295.472656 314.175781 C 295.398438 314.558594 295.285156 314.933594 295.136719 315.292969 C 294.984375 315.652344 294.804688 315.996094 294.585938 316.320312 C 294.371094 316.648438 294.121094 316.945312 293.847656 317.222656 C 293.570312 317.5 293.269531 317.746094 292.945312 317.964844 C 292.621094 318.179688 292.277344 318.363281 291.917969 318.511719 C 291.558594 318.664062 291.1875 318.777344 290.804688 318.851562 C 290.421875 318.929688 290.035156 318.964844 289.644531 318.964844 C 289.253906 318.964844 288.867188 318.929688 288.484375 318.851562 C 288.101562 318.777344 287.730469 318.664062 287.367188 318.511719 C 287.007812 318.363281 286.664062 318.179688 286.339844 317.964844 C 286.015625 317.746094 285.714844 317.5 285.441406 317.222656 C 285.164062 316.945312 284.917969 316.648438 284.699219 316.320312 C 284.484375 315.996094 284.300781 315.652344 284.152344 315.292969 C 284.003906 314.933594 283.890625 314.558594 283.8125 314.175781 C 283.738281 313.792969 283.699219 313.40625 283.699219 313.015625 C 283.699219 312.625 283.738281 312.238281 283.8125 311.855469 C 283.890625 311.472656 284.003906 311.101562 284.152344 310.738281 C 284.300781 310.378906 284.484375 310.035156 284.699219 309.710938 C 284.917969 309.386719 285.164062 309.085938 285.441406 308.808594 C 285.714844 308.53125 286.015625 308.285156 286.339844 308.070312 C 286.664062 307.851562 287.007812 307.667969 287.367188 307.519531 C 287.730469 307.367188 288.101562 307.257812 288.484375 307.179688 C 288.867188 307.105469 289.253906 307.066406 289.644531 307.066406 C 290.035156 307.066406 290.421875 307.105469 290.804688 307.179688 C 291.1875 307.257812 291.558594 307.367188 291.917969 307.519531 C 292.277344 307.667969 292.621094 307.851562 292.945312 308.070312 C 293.269531 308.285156 293.570312 308.53125 293.847656 308.808594 C 294.121094 309.085938 294.371094 309.386719 294.585938 309.710938 C 294.804688 310.035156 294.984375 310.378906 295.136719 310.738281 C 295.285156 311.101562 295.398438 311.472656 295.472656 311.855469 C 295.550781 312.238281 295.589844 312.625 295.589844 313.015625 Z M 295.589844 313.015625 " fill-opacity="1" fill-rule="nonzero"/><path fill="#c1ecfe" d="M 289.636719 238.738281 L 244.734375 261.523438 L 246.59375 238.46875 C 259.417969 237.136719 281.269531 221.929688 289.492188 207.714844 L 289.492188 238.46875 Z M 289.636719 238.738281 " fill-opacity="1" fill-rule="nonzero"/><path fill="#ffdb3f" d="M 289.5 99.597656 L 289.5 207.714844 C 281.277344 221.929688 259.417969 237.136719 246.601562 238.46875 L 249.804688 198.785156 C 253.019531 196.40625 254.789062 193.816406 254.789062 191.113281 L 254.789062 177.3125 C 254.789062 166.742188 227.863281 157.964844 192.382812 156.167969 L 192.382812 128.691406 C 203.597656 106.875 264.757812 89.351562 289.5 99.597656 Z M 289.5 99.597656 " fill-opacity="1" fill-rule="nonzero"/><path fill="#c1ecfe" d="M 192.382812 113.976562 L 192.382812 67.390625 L 289.5 79.324219 L 289.5 99.597656 C 264.757812 89.351562 203.597656 106.875 192.382812 128.691406 Z M 192.382812 113.976562 " fill-opacity="1" fill-rule="nonzero"/><path fill="#ffdb3f" d="M 289.023438 328.121094 C 289.023438 328.484375 288.988281 328.847656 288.917969 329.203125 C 288.84375 329.5625 288.738281 329.910156 288.601562 330.246094 C 288.460938 330.582031 288.289062 330.902344 288.085938 331.207031 C 287.886719 331.507812 287.65625 331.789062 287.398438 332.046875 C 287.140625 332.304688 286.859375 332.535156 286.558594 332.738281 C 286.253906 332.941406 285.933594 333.109375 285.597656 333.25 C 285.261719 333.390625 284.914062 333.496094 284.558594 333.566406 C 284.199219 333.636719 283.839844 333.671875 283.472656 333.671875 C 283.109375 333.671875 282.75 333.636719 282.390625 333.566406 C 282.035156 333.496094 281.6875 333.390625 281.351562 333.25 C 281.015625 333.109375 280.695312 332.941406 280.390625 332.738281 C 280.089844 332.535156 279.808594 332.304688 279.550781 332.046875 C 279.292969 331.789062 279.0625 331.507812 278.859375 331.207031 C 278.660156 330.902344 278.488281 330.582031 278.347656 330.246094 C 278.210938 329.910156 278.105469 329.5625 278.03125 329.203125 C 277.960938 328.847656 277.925781 328.484375 277.925781 328.121094 C 277.925781 327.753906 277.960938 327.394531 278.03125 327.035156 C 278.105469 326.679688 278.210938 326.332031 278.347656 325.996094 C 278.488281 325.65625 278.660156 325.335938 278.859375 325.035156 C 279.0625 324.730469 279.292969 324.449219 279.550781 324.191406 C 279.808594 323.933594 280.089844 323.703125 280.390625 323.503906 C 280.695312 323.300781 281.015625 323.128906 281.351562 322.988281 C 281.6875 322.847656 282.035156 322.746094 282.390625 322.671875 C 282.75 322.601562 283.109375 322.566406 283.472656 322.566406 C 283.839844 322.566406 284.199219 322.601562 284.558594 322.671875 C 284.914062 322.746094 285.261719 322.847656 285.597656 322.988281 C 285.933594 323.128906 286.253906 323.300781 286.558594 323.503906 C 286.859375 323.703125 287.140625 323.933594 287.398438 324.191406 C 287.65625 324.449219 287.886719 324.730469 288.085938 325.035156 C 288.289062 325.335938 288.460938 325.65625 288.601562 325.996094 C 288.738281 326.332031 288.84375 326.679688 288.917969 327.035156 C 288.988281 327.394531 289.023438 327.753906 289.023438 328.121094 Z M 289.023438 328.121094 " fill-opacity="1" fill-rule="nonzero"/><path fill="#ffdb3f" d="M 264.542969 309.542969 C 268.824219 309.542969 272.304688 313.015625 272.304688 317.3125 C 272.304688 321.609375 268.824219 325.082031 264.542969 325.082031 C 260.25 325.082031 256.773438 321.609375 256.773438 317.3125 C 256.773438 313.015625 260.25 309.542969 264.542969 309.542969 Z M 264.542969 309.542969 " fill-opacity="1" fill-rule="nonzero"/><path fill="#00cdfa" d="M 178.960938 198.785156 C 220.84375 198.785156 254.789062 189.175781 254.789062 177.3125 L 254.789062 191.113281 C 254.789062 193.816406 253.019531 196.40625 249.804688 198.785156 C 238.894531 206.855469 211.285156 212.585938 178.960938 212.585938 C 146.636719 212.585938 119.035156 206.859375 108.125 198.785156 C 106.816406 197.820312 105.746094 196.824219 104.949219 195.792969 C 103.765625 194.28125 103.136719 192.714844 103.136719 191.113281 L 103.136719 177.3125 C 103.128906 189.175781 137.085938 198.785156 178.960938 198.785156 Z M 178.960938 198.785156 " fill-opacity="1" fill-rule="nonzero"/><path fill="#00cdfa" d="M 112.050781 167.207031 C 124.824219 160.433594 149.992188 155.839844 178.960938 155.839844 C 183.535156 155.839844 188.03125 155.949219 192.382812 156.175781 C 227.863281 157.972656 254.789062 166.742188 254.789062 177.320312 C 254.789062 189.175781 220.84375 198.792969 178.960938 198.792969 C 137.085938 198.792969 103.136719 189.183594 103.136719 177.320312 C 103.128906 173.667969 106.359375 170.222656 112.050781 167.207031 Z M 112.050781 167.207031 " fill-opacity="1" fill-rule="nonzero"/><path fill="#ffdb3f" d="M 247.859375 291.527344 C 251.230469 291.527344 253.976562 294.265625 253.976562 297.640625 C 253.976562 301.019531 251.230469 303.757812 247.859375 303.757812 C 244.488281 303.757812 241.75 301.019531 241.75 297.640625 C 241.75 294.265625 244.480469 291.527344 247.859375 291.527344 Z M 247.859375 291.527344 " fill-opacity="1" fill-rule="nonzero"/><path fill="#fff7b9" d="M 249.804688 198.785156 L 246.601562 238.46875 L 244.742188 261.523438 L 211.25 278.519531 L 211.25 323.734375 C 201.453125 325.042969 190.511719 325.769531 178.960938 325.769531 C 174.375 325.769531 169.882812 325.648438 165.53125 325.433594 L 165.515625 325.433594 L 165.515625 257.023438 L 131.917969 237.128906 L 111.511719 240.820312 L 108.125 198.777344 C 119.035156 206.847656 146.640625 212.578125 178.960938 212.578125 C 211.285156 212.585938 238.894531 206.859375 249.804688 198.785156 Z M 249.804688 198.785156 " fill-opacity="1" fill-rule="nonzero"/><path fill="#ffdb3f" d="M 192.382812 128.691406 L 192.382812 156.175781 C 188.03125 155.949219 183.535156 155.839844 178.960938 155.839844 C 150 155.839844 124.824219 160.433594 112.050781 167.207031 C 110.75 165.292969 109.261719 163.480469 107.609375 161.8125 L 101.320312 155.523438 C 97.378906 151.578125 95.167969 146.226562 95.167969 140.644531 C 99.28125 139.246094 101.746094 137.449219 101.746094 135.488281 L 101.746094 123.308594 C 101.746094 119.792969 93.777344 116.789062 82.671875 115.691406 C 82.671875 112.785156 82.835938 109.933594 83.15625 107.121094 C 87.742188 115.242188 112.605469 121.445312 142.582031 121.445312 C 163.296875 121.445312 181.570312 118.476562 192.398438 113.96875 L 192.398438 128.691406 Z M 192.382812 128.691406 " fill-opacity="1" fill-rule="nonzero"/><path fill="#c1ecfe" d="M 192.382812 75.4375 L 192.382812 113.984375 C 181.5625 118.488281 163.289062 121.460938 142.566406 121.460938 C 112.589844 121.460938 87.734375 115.257812 83.144531 107.136719 C 84.8125 92.285156 90.824219 78.792969 100.335938 67.96875 L 110.585938 56.308594 C 117.015625 48.996094 120.628906 39.078125 120.628906 28.734375 C 125.863281 30.523438 133.742188 31.652344 142.566406 31.652344 C 151.429688 31.652344 159.339844 30.507812 164.574219 28.710938 L 166.359375 28.734375 C 166.359375 39.078125 169.972656 48.996094 176.402344 56.308594 L 186.648438 67.96875 C 188.734375 70.324219 190.640625 72.824219 192.382812 75.4375 Z M 192.382812 75.4375 " fill-opacity="1" fill-rule="nonzero"/><path fill="#00cdfa" d="M 142.566406 19.46875 C 158.316406 19.46875 171.078125 15.851562 171.078125 11.390625 L 171.078125 23.570312 C 171.078125 25.515625 168.640625 27.320312 164.574219 28.710938 C 159.339844 30.507812 151.429688 31.652344 142.566406 31.652344 C 133.742188 31.652344 125.863281 30.523438 120.628906 28.734375 C 116.515625 27.335938 114.046875 25.539062 114.046875 23.570312 L 114.046875 11.390625 C 114.046875 15.851562 126.820312 19.46875 142.566406 19.46875 Z M 142.566406 19.46875 " fill-opacity="1" fill-rule="nonzero"/><path fill="#00cdfa" d="M 171.078125 11.390625 C 171.078125 15.851562 158.316406 19.46875 142.566406 19.46875 C 126.820312 19.46875 114.046875 15.851562 114.046875 11.390625 C 114.046875 6.9375 126.820312 3.324219 142.566406 3.324219 C 158.316406 3.324219 171.078125 6.929688 171.078125 11.390625 Z M 171.078125 11.390625 " fill-opacity="1" fill-rule="nonzero"/><path fill="#ffdb3f" d="M 165.507812 325.441406 L 165.507812 343.597656 L 33.492188 372.03125 L 33.492188 282.105469 L 165.515625 257.03125 L 165.515625 325.441406 Z M 120.335938 323.507812 C 144.332031 308.488281 158.261719 291.664062 157.710938 282.214844 C 157.164062 272.972656 142.703125 269.964844 119.625 277.121094 C 86.097656 287.523438 44.222656 315.636719 42.867188 335.46875 C 41.457031 356.179688 84.765625 345.792969 120.335938 323.507812 Z M 120.335938 323.507812 " fill-opacity="1" fill-rule="nonzero"/><path fill="#ffdb3f" d="M 165.507812 257.03125 L 33.492188 282.105469 L 1.113281 260.78125 L 28.011719 255.914062 L 38.089844 254.097656 L 111.503906 240.828125 L 131.917969 237.136719 Z M 165.507812 257.03125 " fill-opacity="1" fill-rule="nonzero"/><path fill="#c1ecfe" d="M 157.710938 282.214844 C 158.269531 291.664062 144.339844 308.496094 120.335938 323.507812 C 84.765625 345.792969 41.457031 356.171875 42.867188 335.460938 C 44.222656 315.628906 86.097656 287.515625 119.625 277.113281 C 142.703125 269.964844 157.164062 272.964844 157.710938 282.214844 Z M 157.710938 282.214844 " fill-opacity="1" fill-rule="nonzero"/><path fill="#00cdfa" d="M 108.117188 198.785156 L 111.503906 240.828125 L 38.089844 254.097656 L 38.089844 191.089844 C 44.796875 195.433594 60.089844 198.472656 77.894531 198.472656 C 88.125 198.472656 97.523438 197.46875 104.941406 195.792969 C 105.742188 196.824219 106.808594 197.820312 108.117188 198.785156 Z M 108.117188 198.785156 " fill-opacity="1" fill-rule="nonzero"/><path fill="#c1ecfe" d="M 107.609375 161.8125 C 109.269531 163.480469 110.75 165.285156 112.050781 167.207031 C 106.359375 170.222656 103.128906 173.667969 103.128906 177.320312 L 103.128906 191.121094 C 103.128906 192.730469 103.75 194.285156 104.941406 195.796875 C 97.523438 197.476562 88.125 198.476562 77.894531 198.476562 C 60.089844 198.476562 44.796875 195.441406 38.089844 191.097656 L 38.089844 254.105469 L 28.011719 255.921875 L 28.011719 188.007812 C 28.011719 178.1875 31.914062 168.773438 38.851562 161.820312 L 45.132812 155.53125 C 49.074219 151.585938 51.289062 146.234375 51.289062 140.652344 C 56.523438 142.441406 64.402344 143.570312 73.226562 143.570312 C 82.042969 143.570312 89.925781 142.441406 95.160156 140.652344 C 95.160156 146.226562 97.371094 151.585938 101.3125 155.53125 Z M 107.609375 161.8125 " fill-opacity="1" fill-rule="nonzero"/><path fill="#ffdb3f" d="M 101.738281 123.316406 L 101.738281 135.496094 C 101.738281 137.449219 99.273438 139.253906 95.160156 140.652344 C 89.925781 142.441406 82.042969 143.570312 73.226562 143.570312 C 64.402344 143.570312 56.523438 142.441406 51.289062 140.652344 C 47.183594 139.253906 44.707031 137.457031 44.707031 135.496094 L 44.707031 123.316406 C 44.707031 127.769531 57.480469 131.386719 73.226562 131.386719 C 88.976562 131.386719 101.738281 127.769531 101.738281 123.316406 Z M 101.738281 123.316406 " fill-opacity="1" fill-rule="nonzero"/><path fill="#ffdb3f" d="M 101.738281 123.316406 C 101.738281 127.769531 88.96875 131.386719 73.226562 131.386719 C 57.480469 131.386719 44.707031 127.769531 44.707031 123.316406 C 44.707031 118.863281 57.480469 115.25 73.226562 115.25 C 76.53125 115.25 79.710938 115.40625 82.65625 115.707031 C 93.777344 116.796875 101.738281 119.792969 101.738281 123.316406 Z M 101.738281 123.316406 " fill-opacity="1" fill-rule="nonzero"/><path fill="#ffdb3f" d="M 33.492188 282.105469 L 33.492188 372.03125 L 1.113281 350.707031 L 1.113281 260.78125 Z M 33.492188 282.105469 " fill-opacity="1" fill-rule="nonzero"/><g clip-path="url(#ec5d8251bd)"><path fill="#034249" d="M 372.359375 274.679688 C 370.773438 257.683594 356.035156 241.441406 332.871094 231.105469 L 332.871094 60.257812 C 332.871094 59.871094 332.660156 59.503906 332.324219 59.300781 L 306.320312 43.734375 L 306.320312 21.691406 L 221.925781 11.324219 L 221.925781 33.832031 L 191.566406 66.628906 C 191.375 66.839844 191.277344 67.109375 191.277344 67.382812 L 191.269531 67.382812 L 191.269531 71.914062 C 190.066406 70.28125 188.800781 68.703125 187.484375 67.210938 L 177.242188 55.550781 C 171.042969 48.5 167.484375 38.726562 167.476562 28.734375 C 170.570312 27.273438 172.195312 25.507812 172.195312 23.554688 L 172.195312 11.390625 C 172.195312 5.417969 156.933594 2.199219 142.566406 2.199219 C 128.203125 2.199219 112.933594 5.417969 112.933594 11.390625 L 112.933594 23.570312 C 112.933594 25.867188 115.199219 27.917969 119.492188 29.511719 C 119.3125 39.234375 115.789062 48.6875 109.75 55.566406 L 99.496094 67.226562 C 89.746094 78.320312 83.710938 92.078125 82.035156 107.007812 C 82.027344 107.046875 82.027344 107.089844 82.019531 107.128906 L 82.019531 107.15625 C 81.753906 109.574219 81.601562 112.039062 81.566406 114.492188 C 78.894531 114.261719 76.105469 114.140625 73.226562 114.140625 C 58.863281 114.140625 43.59375 117.359375 43.59375 123.324219 L 43.59375 135.503906 C 43.59375 137.792969 45.859375 139.835938 50.152344 141.4375 C 49.949219 146.40625 47.863281 151.226562 44.34375 154.746094 L 38.0625 161.03125 C 30.859375 168.242188 26.890625 177.820312 26.890625 188.007812 L 26.890625 254.996094 L 0.90625 259.6875 L 0.90625 259.695312 C 0.792969 259.71875 0.679688 259.746094 0.574219 259.808594 C 0.222656 259.996094 0 260.367188 0 260.78125 L 0 350.707031 C 0 351.082031 0.1875 351.433594 0.5 351.644531 L 32.878906 372.96875 L 32.886719 372.960938 C 33.066406 373.082031 33.273438 373.15625 33.492188 373.15625 C 33.566406 373.15625 33.648438 373.148438 33.722656 373.132812 L 165.746094 344.707031 C 166.265625 344.59375 166.628906 344.136719 166.628906 343.613281 L 166.628906 326.617188 C 170.757812 326.800781 174.894531 326.898438 178.960938 326.898438 C 189.847656 326.898438 200.324219 326.257812 210.132812 325.007812 L 210.132812 339.632812 C 210.132812 340.246094 210.636719 340.746094 211.25 340.746094 L 367.433594 340.746094 C 367.890625 340.746094 368.300781 340.46875 368.464844 340.042969 C 374.535156 324.847656 374.976562 285.269531 372.359375 274.679688 Z M 370.019531 273.78125 L 216.125 277.292969 L 314.753906 227.234375 C 320.347656 228.589844 325.910156 230.476562 331.308594 232.839844 C 348.582031 240.414062 367.605469 255.070312 370.019531 273.78125 Z M 4.058594 261.378906 L 131.710938 238.304688 L 162.40625 256.476562 L 33.722656 280.921875 Z M 39.203125 252.765625 L 39.203125 193.03125 C 46.9375 197.046875 61.726562 199.59375 77.894531 199.59375 C 87.628906 199.59375 96.8125 198.703125 104.519531 197.027344 C 105.21875 197.820312 106.0625 198.597656 107.050781 199.367188 L 110.316406 239.914062 Z M 108.785156 197.886719 C 107.542969 196.964844 106.539062 196.03125 105.816406 195.109375 C 104.777344 193.777344 104.246094 192.4375 104.246094 191.121094 L 104.246094 182.960938 C 113.046875 193.671875 146.476562 199.90625 178.953125 199.90625 C 211.4375 199.90625 244.867188 193.679688 253.667969 182.960938 L 253.667969 191.121094 C 253.667969 193.390625 252.144531 195.664062 249.136719 197.894531 C 238.152344 206.015625 209.957031 211.480469 178.953125 211.480469 C 147.964844 211.472656 119.761719 206.015625 108.785156 197.886719 Z M 102.855469 135.496094 L 102.855469 123.316406 C 102.855469 118.519531 93.191406 115.75 83.785156 114.695312 C 83.808594 113.117188 83.875 111.527344 83.996094 109.957031 C 91.691406 117.390625 115.167969 122.570312 142.558594 122.570312 C 161.769531 122.570312 179.777344 119.988281 191.253906 115.617188 L 191.253906 155.007812 C 187.261719 154.820312 183.132812 154.722656 178.945312 154.722656 C 151.324219 154.722656 125.988281 158.945312 112.386719 165.777344 C 111.183594 164.09375 109.84375 162.492188 108.378906 161.023438 L 102.089844 154.738281 C 98.570312 151.210938 96.484375 146.398438 96.28125 141.429688 C 100.597656 139.835938 102.855469 137.792969 102.855469 135.496094 Z M 288.386719 97.980469 C 276.386719 93.78125 256.398438 94.90625 235.558594 101.050781 C 215.960938 106.820312 200.375 115.726562 193.496094 124.875 L 193.496094 68.65625 L 288.386719 80.316406 Z M 112.574219 168.195312 C 125.644531 161.265625 151.085938 156.960938 178.960938 156.960938 C 183.515625 156.960938 188.015625 157.074219 192.332031 157.296875 C 227.304688 159.0625 253.683594 167.671875 253.683594 177.328125 C 253.683594 182.4375 245.886719 187.589844 232.28125 191.433594 C 218.054688 195.460938 199.121094 197.675781 178.96875 197.675781 C 134.273438 197.675781 104.257812 187.152344 104.257812 177.328125 C 104.246094 174.226562 107.125 171.078125 112.574219 168.195312 Z M 250.871094 199.367188 C 254.207031 196.785156 255.90625 194.011719 255.90625 191.113281 L 255.90625 177.3125 C 255.90625 166.203125 230.292969 157.117188 193.496094 155.113281 L 193.496094 128.96875 C 198.640625 119.296875 214.949219 109.433594 236.1875 103.183594 C 257.054688 97.039062 276.9375 95.976562 288.386719 100.355469 L 288.386719 207.398438 C 280.664062 220.492188 260.765625 234.996094 247.820312 237.175781 Z M 247.632812 239.457031 C 260.160156 237.617188 279.242188 224.359375 288.386719 211.488281 L 288.386719 238.132812 L 246.003906 259.636719 Z M 330.644531 230.136719 C 325.484375 227.976562 320.1875 226.238281 314.871094 224.972656 C 314.617188 224.914062 314.347656 224.945312 314.109375 225.0625 L 290.609375 236.996094 L 290.609375 79.5625 L 305.707031 45.964844 L 330.636719 60.886719 L 330.636719 230.136719 Z M 224.15625 13.847656 L 304.097656 23.667969 L 304.097656 43.105469 L 224.15625 33.285156 Z M 223.46875 35.449219 L 303.574219 45.289062 L 288.820312 78.117188 L 194.679688 66.554688 Z M 142.566406 4.429688 C 159.542969 4.429688 169.964844 8.480469 169.964844 11.382812 C 169.964844 14.289062 159.542969 18.34375 142.566406 18.34375 C 125.585938 18.34375 115.160156 14.289062 115.160156 11.382812 C 115.160156 8.480469 125.59375 4.429688 142.566406 4.429688 Z M 115.160156 23.570312 L 115.160156 15.058594 C 119.910156 18.667969 131.5 20.582031 142.566406 20.582031 C 153.625 20.582031 165.21875 18.667969 169.964844 15.058594 L 169.964844 23.5625 C 169.964844 24.585938 168.453125 26.195312 164.214844 27.648438 C 158.875 29.476562 150.988281 30.53125 142.566406 30.53125 C 134.171875 30.53125 126.304688 29.488281 120.988281 27.671875 C 117.339844 26.4375 115.160156 24.894531 115.160156 23.570312 Z M 101.171875 68.695312 L 111.421875 57.035156 C 117.765625 49.816406 121.382812 40.359375 121.710938 30.238281 C 127.179688 31.847656 134.65625 32.761719 142.566406 32.761719 C 151.21875 32.761719 159.375 31.667969 164.933594 29.757812 C 165.042969 29.722656 165.148438 29.675781 165.261719 29.640625 C 165.464844 39.984375 169.097656 49.675781 175.558594 57.035156 L 185.800781 68.695312 C 187.746094 70.894531 189.578125 73.28125 191.261719 75.78125 L 191.261719 113.226562 C 180.089844 117.6875 161.980469 120.347656 142.566406 120.347656 C 114.03125 120.347656 89.175781 114.574219 84.300781 106.875 C 85.984375 92.539062 91.808594 79.34375 101.171875 68.695312 Z M 73.226562 116.355469 C 76.464844 116.355469 79.597656 116.507812 82.550781 116.804688 C 94.292969 117.964844 100.625 121.027344 100.625 123.308594 C 100.625 126.214844 90.203125 130.261719 73.226562 130.261719 C 56.246094 130.261719 45.824219 126.214844 45.824219 123.308594 C 45.824219 120.40625 56.253906 116.355469 73.226562 116.355469 Z M 45.828125 135.496094 L 45.828125 126.984375 C 50.578125 130.59375 62.167969 132.5 73.234375 132.5 C 84.292969 132.5 95.886719 130.59375 100.632812 126.984375 L 100.632812 135.496094 C 100.632812 136.519531 99.101562 138.136719 94.808594 139.597656 C 89.492188 141.414062 81.625 142.457031 73.234375 142.457031 C 64.839844 142.457031 56.972656 141.414062 51.65625 139.597656 C 47.355469 138.128906 45.828125 136.511719 45.828125 135.496094 Z M 29.125 188 C 29.125 178.410156 32.863281 169.394531 39.644531 162.605469 L 45.925781 156.316406 C 49.6875 152.550781 51.984375 147.457031 52.351562 142.148438 C 57.816406 143.765625 65.308594 144.679688 73.234375 144.679688 C 81.152344 144.679688 88.648438 143.765625 94.113281 142.148438 C 94.480469 147.457031 96.765625 152.546875 100.535156 156.316406 L 106.824219 162.605469 C 108.125 163.914062 109.320312 165.328125 110.421875 166.839844 C 104.851562 170.023438 102.023438 173.546875 102.023438 177.328125 L 102.023438 191.128906 C 102.023438 192.460938 102.390625 193.769531 103.109375 195.058594 C 95.808594 196.546875 86.941406 197.371094 77.894531 197.371094 C 60.835938 197.371094 45.449219 194.542969 38.695312 190.171875 L 36.976562 189.054688 L 36.976562 253.175781 L 29.125 254.597656 Z M 2.226562 262.855469 L 32.378906 282.710938 L 32.378906 369.964844 L 2.226562 350.109375 Z M 164.394531 342.699219 L 34.605469 370.648438 L 34.605469 283.023438 L 164.394531 258.378906 Z M 178.960938 324.660156 C 174.894531 324.660156 170.75 324.558594 166.628906 324.371094 L 166.628906 257.03125 C 166.628906 256.703125 166.480469 256.386719 166.226562 256.171875 C 166.179688 256.132812 166.128906 256.101562 166.078125 256.074219 L 166.078125 256.066406 L 132.480469 236.171875 C 132.25 236.035156 131.980469 235.984375 131.71875 236.035156 L 112.515625 239.507812 L 109.410156 201 C 121.9375 208.761719 148.707031 213.703125 178.953125 213.703125 C 209.207031 213.703125 235.976562 208.761719 248.503906 201 L 243.671875 260.816406 L 210.742188 277.53125 C 210.359375 277.726562 210.140625 278.113281 210.140625 278.527344 L 210.128906 278.527344 L 210.128906 322.761719 C 200.332031 324.019531 189.855469 324.660156 178.960938 324.660156 Z M 366.664062 338.515625 L 212.355469 338.515625 L 212.355469 279.613281 L 370.371094 276.003906 C 372.628906 287.035156 372.082031 323.816406 366.664062 338.515625 Z M 366.664062 338.515625 " fill-opacity="1" fill-rule="nonzero"/></g><path fill="#034249" d="M 247.859375 290.414062 C 243.875 290.414062 240.636719 293.652344 240.636719 297.640625 C 240.636719 301.632812 243.875 304.871094 247.859375 304.871094 C 251.84375 304.871094 255.089844 301.632812 255.089844 297.640625 C 255.089844 293.652344 251.84375 290.414062 247.859375 290.414062 Z M 247.859375 302.640625 C 245.105469 302.640625 242.863281 300.398438 242.863281 297.640625 C 242.863281 294.886719 245.105469 292.644531 247.859375 292.644531 C 250.617188 292.644531 252.863281 294.886719 252.863281 297.640625 C 252.855469 300.398438 250.609375 302.640625 247.859375 302.640625 Z M 247.859375 302.640625 " fill-opacity="1" fill-rule="nonzero"/><path fill="#034249" d="M 264.542969 308.429688 C 259.644531 308.429688 255.65625 312.410156 255.65625 317.3125 C 255.65625 322.207031 259.644531 326.195312 264.542969 326.195312 C 269.433594 326.195312 273.417969 322.214844 273.417969 317.3125 C 273.417969 312.417969 269.433594 308.429688 264.542969 308.429688 Z M 264.542969 323.964844 C 260.871094 323.964844 257.886719 320.980469 257.886719 317.3125 C 257.886719 313.644531 260.871094 310.660156 264.542969 310.660156 C 268.207031 310.660156 271.1875 313.644531 271.1875 317.3125 C 271.1875 320.980469 268.207031 323.964844 264.542969 323.964844 Z M 264.542969 323.964844 " fill-opacity="1" fill-rule="nonzero"/><path fill="#034249" d="M 289.644531 305.941406 C 285.746094 305.941406 282.585938 309.117188 282.585938 313.007812 C 282.585938 316.902344 285.753906 320.074219 289.644531 320.074219 C 293.539062 320.074219 296.703125 316.902344 296.703125 313.007812 C 296.703125 309.117188 293.53125 305.941406 289.644531 305.941406 Z M 289.644531 317.851562 C 286.980469 317.851562 284.8125 315.679688 284.8125 313.015625 C 284.8125 310.351562 286.980469 308.179688 289.644531 308.179688 C 292.304688 308.179688 294.472656 310.351562 294.472656 313.015625 C 294.472656 315.679688 292.304688 317.851562 289.644531 317.851562 Z M 289.644531 317.851562 " fill-opacity="1" fill-rule="nonzero"/><path fill="#034249" d="M 309.382812 304.050781 C 307.132812 304.050781 305.292969 305.882812 305.292969 308.144531 C 305.292969 310.402344 307.125 312.238281 309.382812 312.238281 C 311.640625 312.238281 313.472656 310.402344 313.472656 308.144531 C 313.472656 305.882812 311.636719 304.050781 309.382812 304.050781 Z M 309.382812 310 C 308.359375 310 307.53125 309.167969 307.53125 308.144531 C 307.53125 307.117188 308.359375 306.289062 309.382812 306.289062 C 310.410156 306.289062 311.238281 307.117188 311.238281 308.144531 C 311.238281 309.167969 310.410156 310 309.382812 310 Z M 309.382812 310 " fill-opacity="1" fill-rule="nonzero"/><path fill="#034249" d="M 329.273438 291.902344 C 323.652344 291.902344 319.074219 296.480469 319.074219 302.109375 C 319.074219 307.738281 323.652344 312.320312 329.273438 312.320312 C 334.898438 312.320312 339.472656 307.738281 339.472656 302.109375 C 339.472656 296.476562 334.898438 291.902344 329.273438 291.902344 Z M 329.273438 310.082031 C 324.878906 310.082031 321.3125 306.503906 321.3125 302.109375 C 321.3125 297.710938 324.886719 294.140625 329.273438 294.140625 C 333.671875 294.140625 337.246094 297.71875 337.246094 302.109375 C 337.246094 306.503906 333.671875 310.082031 329.273438 310.082031 Z M 329.273438 310.082031 " fill-opacity="1" fill-rule="nonzero"/><path fill="#034249" d="M 353.882812 286.609375 C 350.539062 286.609375 347.820312 289.335938 347.820312 292.679688 C 347.820312 296.035156 350.539062 298.757812 353.882812 298.757812 C 357.234375 298.757812 359.957031 296.035156 359.957031 292.679688 C 359.957031 289.335938 357.234375 286.609375 353.882812 286.609375 Z M 353.882812 296.527344 C 351.765625 296.527344 350.046875 294.796875 350.046875 292.679688 C 350.046875 290.5625 351.765625 288.839844 353.882812 288.839844 C 356 288.839844 357.726562 290.5625 357.726562 292.679688 C 357.726562 294.796875 356.007812 296.527344 353.882812 296.527344 Z M 353.882812 296.527344 " fill-opacity="1" fill-rule="nonzero"/><path fill="#034249" d="M 323.957031 315.613281 C 320.128906 315.613281 317.019531 318.726562 317.019531 322.558594 C 317.019531 326.382812 320.136719 329.496094 323.957031 329.496094 C 327.777344 329.496094 330.890625 326.382812 330.890625 322.558594 C 330.890625 318.734375 327.777344 315.613281 323.957031 315.613281 Z M 323.957031 327.273438 C 321.363281 327.273438 319.246094 325.164062 319.246094 322.566406 C 319.246094 319.96875 321.363281 317.851562 323.957031 317.851562 C 326.554688 317.851562 328.660156 319.96875 328.660156 322.566406 C 328.660156 325.164062 326.554688 327.273438 323.957031 327.273438 Z M 323.957031 327.273438 " fill-opacity="1" fill-rule="nonzero"/><path fill="#034249" d="M 283.472656 321.453125 C 279.796875 321.453125 276.804688 324.445312 276.804688 328.128906 C 276.804688 331.808594 279.796875 334.804688 283.472656 334.804688 C 287.152344 334.804688 290.144531 331.808594 290.144531 328.128906 C 290.136719 324.445312 287.144531 321.453125 283.472656 321.453125 Z M 283.472656 332.566406 C 281.03125 332.566406 279.039062 330.574219 279.039062 328.128906 C 279.039062 325.679688 281.03125 323.6875 283.472656 323.6875 C 285.917969 323.6875 287.910156 325.679688 287.910156 328.128906 C 287.910156 330.566406 285.917969 332.566406 283.472656 332.566406 Z M 283.472656 332.566406 " fill-opacity="1" fill-rule="nonzero"/><path fill="#034249" d="M 46.585938 345.386719 C 49.226562 346.972656 52.941406 347.757812 57.554688 347.757812 C 63.125 347.757812 69.996094 346.605469 77.828125 344.316406 C 91.613281 340.28125 106.921875 333.230469 120.925781 324.460938 C 143.859375 310.105469 159.445312 292.710938 158.816406 282.148438 C 158.644531 279.269531 157.246094 276.835938 154.761719 275.105469 C 148.390625 270.691406 135.464844 271.035156 119.289062 276.050781 C 102.53125 281.242188 83.554688 290.890625 68.515625 301.847656 C 51.902344 313.960938 42.398438 325.867188 41.746094 335.386719 C 41.457031 339.855469 43.125 343.3125 46.585938 345.386719 Z M 43.984375 335.542969 C 45.285156 316.421875 86.613281 288.535156 119.957031 278.191406 C 128.34375 275.585938 135.914062 274.277344 141.96875 274.277344 C 146.949219 274.277344 150.917969 275.167969 153.492188 276.949219 C 155.421875 278.289062 156.460938 280.074219 156.585938 282.285156 C 157.230469 293.1875 138.535156 310.800781 119.738281 322.566406 C 90.914062 340.621094 58.609375 350.003906 47.722656 343.480469 C 44.957031 341.808594 43.730469 339.210938 43.984375 335.542969 Z M 43.984375 335.542969 " fill-opacity="1" fill-rule="nonzero"/></svg>