<svg xmlns="http://www.w3.org/2000/svg" xmlns:xlink="http://www.w3.org/1999/xlink" width="500" zoomAndPan="magnify" viewBox="0 0 375 374.999991" height="500" preserveAspectRatio="xMidYMid meet" version="1.0"><defs><clipPath id="a2bb0f6fde"><path d="M 15.546875 0 L 359.796875 0 L 359.796875 375 L 15.546875 375 Z M 15.546875 0 " clip-rule="nonzero"/></clipPath></defs><path fill="#71002e" d="M 147.4375 4.433594 C 145.910156 4.425781 139.535156 7.78125 136.53125 10.175781 C 134.828125 11.535156 117.027344 18.316406 104.792969 22.265625 C 90.957031 26.738281 86.988281 27.828125 79.570312 29.230469 C 67.960938 31.429688 61.34375 36.523438 55.988281 47.359375 C 54.46875 50.429688 52.667969 55.34375 51.992188 58.285156 C 51.316406 61.226562 50.4375 63.96875 50.046875 64.367188 C 49.65625 64.765625 49.339844 66.511719 49.339844 68.253906 C 49.339844 71.300781 49.015625 71.953125 44.371094 78.238281 C 43.71875 79.125 42.910156 82.121094 42.574219 84.910156 C 42.128906 88.59375 41.488281 90.507812 40.199219 91.875 C 38.710938 93.460938 38.308594 95.023438 37.722656 101.625 C 36.964844 110.140625 36.605469 111.609375 31.382812 128.203125 C 27.363281 140.976562 24.070312 153.574219 21.875 164.488281 C 20.199219 172.828125 18.808594 185.132812 19.328125 187.152344 C 19.503906 187.851562 21.085938 188.945312 22.835938 189.582031 L 30.292969 192.292969 C 43.464844 197.074219 47.683594 197.886719 61.027344 198.195312 L 73.867188 198.492188 L 76.550781 201.171875 C 78.890625 203.507812 79.699219 203.851562 83.019531 203.851562 C 85.109375 203.851562 86.824219 204.09375 86.824219 204.410156 C 86.820312 205.953125 82.734375 221.226562 81.871094 222.921875 C 80.316406 225.976562 79.753906 235.667969 80.78125 241.667969 C 82.15625 249.707031 81.980469 252.453125 79.585938 260.367188 C 77.050781 268.757812 77.296875 271.527344 81.414062 280.894531 C 84.15625 287.136719 84.324219 290.21875 82.226562 295.53125 C 80.480469 299.960938 80.265625 304.046875 81.648438 306.472656 C 82.300781 307.613281 82.75 314.089844 83.066406 326.855469 C 83.535156 345.773438 84.90625 356.503906 87.132812 358.792969 C 87.875 359.554688 89.144531 359.625 92.617188 359.074219 C 97.722656 358.261719 114.816406 359.140625 120.847656 360.53125 C 122.949219 361.019531 128.8125 362.566406 133.863281 363.964844 C 143.058594 366.507812 156.414062 369.324219 162.148438 369.925781 C 163.832031 370.101562 172.621094 370.15625 181.667969 370.042969 C 194.988281 369.878906 199.628906 369.519531 206.136719 368.175781 C 219.734375 365.367188 226.546875 363.207031 241.367188 356.96875 C 257.671875 350.105469 269.613281 346.472656 279.015625 345.511719 C 282.859375 345.121094 284.398438 344.625 284.941406 343.613281 C 285.914062 341.792969 285.878906 325.441406 284.882812 317.929688 C 284.445312 314.644531 283.363281 309.84375 282.480469 307.269531 L 280.871094 302.601562 L 283.6875 296.035156 C 289.125 283.382812 289.921875 273.394531 285.941406 267.539062 C 284.460938 265.355469 284.125 264.160156 284.511719 262.355469 C 289.023438 241.382812 289.734375 223.78125 286.722656 207.75 L 286.238281 205.171875 L 291.5 205.761719 C 301.007812 206.835938 305.058594 205.757812 309.660156 200.917969 C 311.3125 199.179688 312.8125 198.476562 315.777344 198.074219 C 325.128906 196.8125 337.421875 193.621094 347.25 189.902344 C 356.382812 186.445312 356.21875 186.734375 353.765625 178.652344 C 352.933594 175.910156 351.1875 169.875 349.890625 165.25 C 346.757812 154.101562 342.246094 139.558594 337.566406 125.578125 C 334.140625 115.347656 333.796875 113.722656 334.25 109.839844 C 334.890625 104.328125 333.71875 99.964844 330.933594 97.484375 C 328.921875 95.691406 328.707031 94.996094 328.234375 88.382812 C 327.753906 81.613281 324.789062 67.808594 323.148438 64.75 C 322.734375 63.976562 322.398438 62.488281 322.398438 61.433594 C 322.398438 60.378906 321.472656 57.039062 320.347656 54.011719 C 317.253906 45.671875 311.414062 39.804688 301.40625 34.972656 C 297.171875 32.929688 289.058594 29.671875 283.378906 27.726562 C 252.53125 17.160156 246.363281 14.644531 238.625 9.511719 C 235.007812 7.113281 233.90625 6.71875 232.597656 7.347656 C 225.703125 10.652344 205.910156 13.589844 190.511719 13.589844 C 175.085938 13.589844 164.273438 11.464844 152.980469 6.214844 C 150.878906 5.234375 148.378906 4.4375 147.4375 4.433594 Z M 147.4375 4.433594 " fill-opacity="1" fill-rule="nonzero"/><path fill="#000000" d="M 147.4375 4.433594 C 145.910156 4.425781 139.535156 7.78125 136.53125 10.175781 C 134.828125 11.535156 117.027344 18.316406 104.792969 22.265625 C 90.957031 26.738281 86.988281 27.828125 79.570312 29.230469 C 67.960938 31.429688 61.34375 36.523438 55.988281 47.359375 C 54.46875 50.429688 52.667969 55.34375 51.992188 58.285156 C 51.316406 61.226562 50.4375 63.96875 50.046875 64.367188 C 49.65625 64.765625 49.339844 66.511719 49.339844 68.253906 C 49.339844 71.300781 49.015625 71.953125 44.371094 78.238281 C 43.71875 79.125 42.910156 82.121094 42.574219 84.910156 C 42.128906 88.59375 41.488281 90.507812 40.199219 91.875 C 38.710938 93.460938 38.308594 95.023438 37.722656 101.625 C 36.964844 110.140625 36.605469 111.609375 31.382812 128.203125 C 27.363281 140.976562 24.070312 153.574219 21.875 164.488281 C 20.199219 172.828125 18.808594 185.132812 19.328125 187.152344 C 19.503906 187.851562 21.085938 188.945312 22.835938 189.582031 L 30.292969 192.292969 C 43.464844 197.074219 47.683594 197.886719 61.027344 198.195312 L 73.867188 198.492188 L 76.550781 201.171875 C 78.890625 203.507812 79.699219 203.851562 83.019531 203.851562 C 85.109375 203.851562 86.824219 204.09375 86.824219 204.410156 C 86.820312 205.953125 82.734375 221.226562 81.871094 222.921875 C 80.316406 225.976562 79.753906 235.667969 80.78125 241.667969 C 82.15625 249.707031 81.980469 252.453125 79.585938 260.367188 C 77.050781 268.757812 77.296875 271.527344 81.414062 280.894531 C 84.15625 287.136719 84.324219 290.21875 82.226562 295.53125 C 80.480469 299.960938 80.265625 304.046875 81.648438 306.472656 C 82.300781 307.613281 82.75 314.089844 83.066406 326.855469 C 83.535156 345.773438 84.90625 356.503906 87.132812 358.792969 C 87.875 359.554688 89.144531 359.625 92.617188 359.074219 C 97.722656 358.261719 114.816406 359.140625 120.847656 360.53125 C 122.949219 361.019531 128.8125 362.566406 133.863281 363.964844 C 143.058594 366.507812 156.414062 369.324219 162.148438 369.925781 C 163.832031 370.101562 172.621094 370.15625 181.667969 370.042969 C 194.988281 369.878906 199.628906 369.519531 206.136719 368.175781 C 219.734375 365.367188 226.546875 363.207031 241.367188 356.96875 C 257.671875 350.105469 269.613281 346.472656 279.015625 345.511719 C 282.859375 345.121094 284.398438 344.625 284.941406 343.613281 C 285.914062 341.792969 285.878906 325.441406 284.882812 317.929688 C 284.445312 314.644531 283.363281 309.84375 282.480469 307.269531 L 280.871094 302.601562 L 283.6875 296.035156 C 289.125 283.382812 289.921875 273.394531 285.941406 267.539062 C 284.460938 265.355469 284.125 264.160156 284.511719 262.355469 C 289.023438 241.382812 289.734375 223.78125 286.722656 207.75 L 286.238281 205.171875 L 291.5 205.761719 C 301.007812 206.835938 305.058594 205.757812 309.660156 200.917969 C 311.3125 199.179688 312.8125 198.476562 315.777344 198.074219 C 325.128906 196.8125 337.421875 193.621094 347.25 189.902344 C 356.382812 186.445312 356.21875 186.734375 353.765625 178.652344 C 352.933594 175.910156 351.1875 169.875 349.890625 165.25 C 346.757812 154.101562 342.246094 139.558594 337.566406 125.578125 C 334.140625 115.347656 333.796875 113.722656 334.25 109.839844 C 334.890625 104.328125 333.71875 99.964844 330.933594 97.484375 C 328.921875 95.691406 328.707031 94.996094 328.234375 88.382812 C 327.753906 81.613281 324.789062 67.808594 323.148438 64.75 C 322.734375 63.976562 322.398438 62.488281 322.398438 61.433594 C 322.398438 60.378906 321.472656 57.039062 320.347656 54.011719 C 317.253906 45.671875 311.414062 39.804688 301.40625 34.972656 C 297.171875 32.929688 289.058594 29.671875 283.378906 27.726562 C 252.53125 17.160156 246.363281 14.644531 238.625 9.511719 C 235.007812 7.113281 233.90625 6.71875 232.597656 7.347656 C 225.703125 10.652344 205.910156 13.589844 190.511719 13.589844 C 175.085938 13.589844 164.273438 11.464844 152.980469 6.214844 C 150.878906 5.234375 148.378906 4.4375 147.4375 4.433594 Z M 146.40625 7.484375 C 146.847656 7.484375 147.902344 8.820312 148.734375 10.457031 C 151.492188 15.855469 159.632812 25.90625 164.492188 29.910156 C 174.011719 37.75 185.121094 41.46875 193.664062 39.660156 C 202.894531 37.703125 210.921875 33.613281 219.003906 26.757812 C 223.003906 23.371094 230.558594 15.003906 232.980469 11.296875 L 234.21875 9.425781 L 237.386719 11.519531 C 239.128906 12.667969 240.554688 13.964844 240.554688 14.390625 C 240.554688 16.207031 235.757812 24.417969 231.800781 29.378906 C 223.695312 39.542969 213.113281 45.722656 199.253906 48.390625 C 182.441406 51.625 166.828125 46.683594 153.46875 33.886719 C 146.308594 27.023438 138.832031 16.125 138.832031 12.546875 C 138.832031 11.472656 144.800781 7.484375 146.40625 7.484375 Z M 245.480469 16.640625 C 245.59375 16.640625 248.066406 17.628906 250.960938 18.820312 C 253.859375 20.015625 258.300781 21.699219 260.824219 22.578125 L 279.855469 29.171875 C 296.855469 35.066406 305.421875 39.046875 310.222656 43.265625 C 313.929688 46.527344 317.867188 53.128906 319.285156 58.464844 C 320.257812 62.105469 319.964844 62.90625 314.464844 71.613281 L 311.371094 76.515625 L 310.308594 73.894531 C 308.65625 69.808594 307.191406 68.609375 303.910156 68.609375 C 301.566406 68.609375 300.367188 69.183594 297.925781 71.480469 C 294.410156 74.789062 293.691406 77.039062 291.042969 93.054688 C 290.105469 98.726562 289.203125 103.511719 289.039062 103.683594 C 288.875 103.859375 288.742188 99.292969 288.742188 93.523438 C 288.742188 75.472656 285.617188 58.667969 282.273438 58.667969 C 280.359375 58.667969 279.441406 74.105469 280.519531 88.089844 C 280.96875 93.9375 281.460938 99.980469 282.226562 109.105469 C 284.054688 130.824219 283.355469 152.867188 280.265625 170.980469 C 277.882812 184.96875 277.277344 187.09375 264.242188 226.308594 C 258.363281 244 253.207031 259.535156 252.789062 260.824219 C 251.871094 263.660156 251.785156 267.261719 252.644531 267.261719 C 254.21875 267.261719 258.445312 261.441406 268.738281 245.097656 L 270.421875 242.433594 L 269.90625 244.714844 C 269.0625 248.394531 265.519531 258.292969 260.207031 271.839844 C 254.503906 286.371094 251.242188 293.492188 247.675781 299.171875 C 244.882812 303.613281 244.550781 305.28125 246.320312 305.957031 C 248.398438 306.753906 250.5625 303.785156 255.886719 292.851562 C 261.917969 280.464844 265.9375 270.339844 274.546875 245.863281 C 275.953125 241.871094 277.347656 238.011719 277.644531 237.277344 C 278.296875 235.671875 279.558594 236.246094 279.558594 238.148438 C 279.558594 238.894531 280.652344 241.679688 281.976562 244.332031 C 284.597656 249.570312 284.597656 249.714844 281.890625 263.0625 C 280.542969 269.703125 264.804688 299.066406 252.273438 318.34375 C 248.015625 324.890625 247.449219 327.238281 250.121094 327.238281 C 251.179688 327.238281 252.957031 325.265625 255.960938 320.742188 C 262.160156 311.402344 272.761719 293.058594 279 280.878906 C 281.960938 275.101562 284.648438 270.535156 284.96875 270.734375 C 286.160156 271.46875 286.539062 277.273438 285.675781 281.558594 C 283.875 290.515625 279.179688 301.734375 275.050781 306.988281 C 269.414062 314.160156 263.164062 320.808594 259.160156 323.894531 C 256.136719 326.222656 255.070312 327.539062 255.238281 328.695312 C 255.363281 329.570312 255.992188 330.386719 256.625 330.507812 C 258.371094 330.839844 266.980469 323.265625 273.8125 315.398438 L 279.914062 308.359375 L 280.796875 310.539062 C 282.207031 314.0625 283.535156 327.421875 283.261719 335.261719 L 283.007812 342.523438 L 280.710938 342.730469 C 270.628906 343.625 256.003906 348.015625 239.40625 355.128906 C 228.339844 359.871094 216.257812 363.617188 204.957031 365.804688 C 195.535156 367.625 172.5 368.476562 162.535156 367.378906 C 154.503906 366.496094 142.054688 363.875 133.480469 361.253906 C 123.898438 358.324219 114.6875 356.65625 107.960938 356.644531 C 104.960938 356.636719 101.800781 356.445312 100.960938 356.21875 C 99.023438 355.695312 88.550781 335.25 89.460938 333.773438 C 90.359375 332.324219 95.277344 333.125 109.761719 337.101562 C 120.109375 339.945312 136.757812 344.121094 143.03125 345.4375 C 148.195312 346.523438 152.078125 347.285156 161.015625 348.957031 C 171.28125 350.878906 201.046875 353.613281 211.488281 353.597656 C 218.949219 353.585938 235.457031 351.636719 237.546875 350.519531 C 238.785156 349.855469 238.96875 349.421875 238.300781 348.75 C 237.269531 347.722656 228.359375 347.902344 224.414062 349.03125 C 220.90625 350.035156 213.078125 349.972656 208.625 348.898438 C 196.613281 346.003906 173.648438 337.433594 156.917969 329.609375 C 152.777344 327.671875 149.25 326.089844 149.078125 326.089844 C 148.375 326.089844 133.738281 317.402344 128.617188 313.941406 C 120.222656 308.265625 111.023438 298.140625 105.265625 288.257812 C 102.578125 283.640625 98.550781 276.753906 96.320312 272.957031 C 86.605469 256.421875 83.800781 244.34375 89.671875 244.34375 C 91.328125 244.34375 93.199219 245.792969 98.292969 251.046875 C 103.6875 256.605469 105.886719 259.703125 111.207031 269.1875 C 119.363281 283.730469 126.15625 293.953125 132.640625 301.453125 C 138.082031 307.746094 141.132812 309.386719 141.132812 306.015625 C 141.132812 305.003906 140.386719 303.519531 139.496094 302.71875 C 137.515625 300.945312 131.179688 292.808594 131.179688 292.042969 C 131.179688 291.738281 132.980469 293.199219 135.191406 295.28125 C 153.433594 312.496094 183.652344 326.847656 211.871094 331.699219 C 230.703125 334.9375 232.140625 335.046875 232.140625 333.347656 C 232.140625 332.71875 231.960938 332.199219 231.742188 332.199219 C 230.328125 332.199219 219.042969 328.800781 216.144531 327.503906 C 207.257812 323.515625 200.269531 319.6875 198.871094 318.046875 C 198.027344 317.0625 194.929688 314.644531 191.984375 312.671875 C 164.074219 293.984375 130.980469 255.972656 113.550781 222.566406 C 110.917969 217.523438 108.011719 212.652344 107.078125 211.742188 C 103.59375 208.339844 96.515625 182.425781 93.03125 160.289062 C 88.175781 129.449219 87.292969 91.089844 90.511719 51.054688 C 90.984375 45.152344 91.199219 44.5 92.941406 43.664062 C 93.996094 43.15625 103.621094 39.902344 114.347656 36.433594 C 125.074219 32.960938 135.285156 29.5 137.03125 28.730469 C 138.78125 27.960938 140.683594 27.519531 141.25 27.757812 C 141.8125 27.996094 143.753906 30.050781 145.566406 32.308594 C 149.578125 37.308594 157.535156 43.84375 163.566406 47.109375 C 173.480469 52.472656 185.933594 54.8125 196.734375 53.335938 C 216.613281 50.617188 231.359375 40.542969 241.824219 22.5625 C 243.71875 19.304688 245.363281 16.640625 245.480469 16.640625 Z M 74.8125 53.058594 C 75.882812 52.871094 75.933594 54.214844 74.839844 56.992188 C 73.492188 60.421875 71.714844 61.128906 69.917969 58.964844 C 69.03125 57.898438 69.296875 57.386719 71.820312 55.078125 C 73.160156 53.847656 74.167969 53.171875 74.8125 53.058594 Z M 67 62.484375 C 67.335938 62.484375 68.519531 63.269531 69.621094 64.222656 L 71.628906 65.945312 L 70.464844 70.90625 C 69.824219 73.632812 69.105469 77.148438 68.855469 78.726562 C 68.605469 80.300781 68.128906 81.597656 67.808594 81.597656 C 67.089844 81.597656 62.339844 76.75 62.339844 76.015625 C 62.339844 75.722656 62.816406 75.484375 63.402344 75.484375 C 64.855469 75.484375 65.4375 73.714844 65.953125 67.652344 C 66.191406 64.816406 66.664062 62.484375 67 62.484375 Z M 321.617188 69.359375 C 322.621094 69.359375 324.699219 79.128906 325.730469 88.652344 C 326.613281 96.835938 326.863281 97.703125 328.722656 99.164062 C 331.355469 101.234375 332.304688 104.8125 331.523438 109.753906 C 330.972656 113.230469 331.222656 114.636719 333.601562 121.519531 C 340.550781 141.628906 350.050781 173.472656 349.3125 174.164062 C 348.53125 174.902344 342.007812 176.800781 328.574219 180.214844 C 322.089844 181.863281 316.324219 183.222656 315.765625 183.222656 C 314.515625 183.222656 314.457031 179.386719 315.46875 163.605469 C 315.867188 157.375 316.375 135.15625 316.589844 114.246094 L 316.988281 76.222656 L 318.992188 72.792969 C 320.097656 70.90625 321.28125 69.359375 321.617188 69.359375 Z M 303.808594 73.335938 C 305.769531 73.351562 306.320312 74.554688 306.226562 77.769531 C 306.160156 80.03125 305.390625 81.144531 301.230469 85 L 296.320312 89.550781 L 296.808594 86.148438 C 297.074219 84.273438 297.566406 81.710938 297.914062 80.449219 C 298.257812 79.1875 298.753906 77.226562 299.003906 76.089844 C 299.367188 74.453125 300.035156 73.90625 302.21875 73.5 C 302.828125 73.382812 303.355469 73.332031 303.808594 73.335938 Z M 59.863281 81.671875 C 60.398438 81.667969 61.507812 82.507812 63.695312 84.46875 L 67.734375 88.089844 L 66.847656 91.140625 C 65.941406 94.308594 66.203125 110.308594 67.644531 140.042969 C 68.03125 148.027344 68.714844 163.257812 69.148438 173.882812 C 69.582031 184.507812 70.132812 193.511719 70.371094 193.894531 C 70.609375 194.28125 70.121094 194.957031 69.296875 195.398438 C 65.632812 197.355469 43.675781 195.152344 41.570312 192.613281 C 41.074219 192.019531 40.683594 189.921875 40.699219 187.945312 C 40.714844 185.792969 40.25 183.816406 39.550781 183.011719 C 38.558594 181.875 38.527344 181.195312 39.34375 178.433594 C 41.34375 171.660156 47.007812 164.9375 54.925781 159.9375 C 57.367188 158.394531 59.558594 156.636719 59.789062 156.035156 C 60.800781 153.402344 58.898438 150.4375 51.636719 143.371094 L 44.058594 136.007812 L 44.855469 133.0625 C 45.296875 131.441406 46.65625 126.53125 47.878906 122.152344 C 49.101562 117.773438 50.105469 113.292969 50.105469 112.195312 C 50.105469 109.285156 52.125 106.875 55.925781 105.246094 C 59.664062 103.644531 60.101562 102.222656 58.078125 98.3125 C 56.996094 96.222656 57.003906 95.398438 58.0625 89.753906 C 58.707031 86.320312 59.332031 82.914062 59.449219 82.1875 C 59.503906 81.859375 59.621094 81.671875 59.863281 81.671875 Z M 311.976562 83.996094 C 312.027344 83.996094 312.082031 84.015625 312.121094 84.058594 C 312.773438 84.707031 310.820312 183.691406 310.101562 186.402344 C 309.285156 189.488281 306.09375 192.589844 301.9375 194.324219 C 300.464844 194.9375 298.597656 195.441406 297.78125 195.441406 C 296.328125 195.441406 296.300781 194.863281 296.804688 171.175781 C 297.246094 150.527344 297.546875 146.070312 298.839844 141.195312 C 301.167969 132.410156 302.195312 128.230469 303.25 123.226562 C 303.78125 120.707031 304.476562 117.613281 304.8125 116.351562 C 305.144531 115.089844 305.988281 110.800781 306.683594 106.808594 C 307.378906 102.816406 308.277344 98.101562 308.671875 96.339844 C 309.070312 94.578125 309.394531 92.078125 309.394531 90.773438 C 309.394531 88.632812 311.203125 84.023438 311.976562 84 Z M 305.738281 86.558594 L 305.3125 88.855469 C 305.074219 90.117188 304.664062 92.695312 304.398438 94.585938 C 303.527344 100.78125 298.164062 126.671875 297.648438 127.1875 C 297.484375 127.351562 297.140625 126.429688 296.878906 125.128906 C 296.621094 123.824219 296.0625 122.96875 295.640625 123.226562 C 295.222656 123.484375 294.558594 124.796875 294.167969 126.144531 C 293.230469 129.378906 293.128906 113.316406 294.035156 105.511719 C 294.59375 100.710938 295.109375 99.386719 298.117188 95.191406 C 300.015625 92.542969 302.515625 89.527344 303.660156 88.476562 L 305.738281 86.5625 Z M 350.328125 178.890625 C 351.007812 178.839844 351.46875 179.351562 351.746094 180.453125 C 352.003906 181.476562 352.414062 182.832031 352.660156 183.472656 C 352.957031 184.242188 352.355469 185.027344 350.890625 185.785156 C 347.226562 187.675781 334.757812 191.609375 326.214844 193.574219 C 317 195.691406 313.980469 195.898438 313.980469 194.398438 C 313.980469 193.824219 314.191406 191.816406 314.449219 189.9375 C 314.875 186.851562 315.089844 186.550781 316.707031 186.859375 C 318.378906 187.175781 327.484375 185.511719 332.714844 183.929688 C 333.976562 183.546875 338.113281 182.359375 341.898438 181.277344 C 345.683594 180.195312 349.347656 179.132812 350.035156 178.9375 C 350.140625 178.90625 350.234375 178.898438 350.332031 178.890625 Z M 77.15625 179.496094 C 77.171875 179.488281 77.179688 179.492188 77.199219 179.511719 C 77.496094 179.78125 78.945312 184.242188 80.429688 189.433594 C 81.910156 194.625 83.316406 199.480469 83.539062 200.214844 C 83.824219 201.164062 83.507812 201.554688 82.460938 201.554688 C 79.742188 201.554688 78.269531 199.746094 78.070312 196.164062 C 77.964844 194.296875 77.609375 189.667969 77.273438 185.886719 C 76.957031 182.339844 76.917969 179.601562 77.15625 179.496094 Z M 309.042969 196.0625 C 309.269531 196.027344 309.394531 196.054688 309.394531 196.148438 C 309.394531 197.375 305.453125 201.578125 303.21875 202.734375 C 300.628906 204.070312 296.695312 204.195312 295.9375 202.96875 C 295.335938 201.992188 297.589844 200.023438 299.3125 200.023438 C 299.917969 200.023438 302.429688 198.996094 304.898438 197.742188 C 306.753906 196.800781 308.355469 196.160156 309.042969 196.0625 Z M 87.535156 214.21875 C 87.71875 214.234375 87.90625 214.640625 88.183594 215.308594 C 89.414062 218.277344 92.019531 225.433594 92.558594 227.339844 C 92.828125 228.285156 92.929688 229.050781 92.796875 229.03125 C 92.664062 229.015625 90.894531 227.472656 88.859375 225.601562 L 85.160156 222.199219 L 86.28125 217.796875 C 86.933594 215.226562 87.222656 214.191406 87.535156 214.21875 Z M 100.238281 233.390625 C 100.53125 233.488281 101.886719 235.53125 103.675781 238.605469 C 114.152344 256.632812 124.394531 268.671875 138.832031 279.925781 C 147.082031 286.355469 153.367188 292.488281 153.367188 294.121094 C 153.367188 297.089844 146.445312 294.734375 136.753906 288.464844 C 129.039062 283.476562 125.300781 279.269531 118.460938 267.9375 C 115.0625 262.3125 110.832031 255.367188 109.070312 252.507812 C 105.96875 247.472656 101.324219 237.5625 100.226562 233.640625 C 100.167969 233.445312 100.171875 233.371094 100.238281 233.390625 Z M 80.636719 266.878906 L 82.078125 270.324219 C 90.554688 290.546875 101.117188 307.546875 109.21875 314 C 112.550781 316.65625 133.765625 327.613281 135.589844 327.621094 C 136.347656 327.625 146.433594 331.761719 149.28125 333.230469 C 150.53125 333.878906 152.007812 334.945312 152.554688 335.601562 C 153.992188 337.332031 152.882812 337.082031 141.132812 333.171875 C 132.070312 330.15625 110.980469 321.273438 96.953125 314.546875 C 91.800781 312.074219 87.125 310.054688 86.5625 310.054688 C 85.996094 310.054688 84.890625 308.144531 84.097656 305.8125 C 82.660156 301.582031 82.652344 301.558594 84.351562 296.832031 C 86.707031 290.257812 86.554688 286.082031 83.730469 280.058594 C 82.457031 277.335938 81.246094 273.265625 81.03125 271 Z M 85.558594 313.867188 C 85.746094 313.867188 90.324219 316.03125 95.730469 318.667969 L 111.296875 326.265625 C 117.925781 329.5 117.816406 329.542969 108.613281 327.269531 C 98.25 324.707031 91.90625 323.640625 88.625 323.925781 L 85.675781 324.191406 L 85.441406 319.023438 C 85.316406 316.183594 85.371094 313.867188 85.558594 313.867188 Z M 85.558594 313.867188 " fill-opacity="0.071" fill-rule="nonzero"/><g clip-path="url(#a2bb0f6fde)"><path fill="#000000" d="M 148.347656 -0.0078125 C 148.1875 -0.015625 148.023438 -0.00390625 147.847656 0.00390625 L 147.820312 0.00390625 C 147.683594 0.00390625 147.527344 0.0351562 147.363281 0.0625 C 147.34375 0.0664062 147.320312 0.0585938 147.300781 0.0625 C 145.199219 0.398438 142.070312 1.902344 136.777344 5.011719 C 126.828125 10.855469 95.625 21.878906 80.4375 24.921875 C 71.664062 26.679688 66.039062 28.976562 61.40625 32.695312 C 57.871094 35.535156 52.53125 43.289062 50.175781 49.011719 C 47.753906 54.882812 44.617188 65.78125 44.617188 68.289062 C 44.617188 69.675781 43.617188 71.816406 42.007812 73.898438 C 39.289062 77.421875 37.742188 81.726562 37.734375 85.78125 C 37.730469 87.097656 37.25 88.574219 36.65625 89.066406 C 34.320312 91.003906 33.054688 95.339844 32.738281 102.480469 C 32.480469 108.222656 31.785156 111.605469 29.359375 119.078125 C 22.550781 140.082031 17.828125 158.273438 16.699219 167.820312 C 16.539062 169.179688 16.285156 172.738281 16.0625 176.6875 C 16.054688 176.859375 16.042969 177.011719 16.035156 177.1875 C 15.921875 178.914062 15.8125 180.632812 15.753906 182.207031 C 15.6875 184.027344 15.65625 185.449219 15.636719 186.65625 C 15.589844 189.402344 15.675781 190.808594 15.992188 191.617188 C 15.996094 191.636719 16 191.660156 16.003906 191.675781 C 16.507812 193.378906 17.585938 193.789062 19.617188 194.210938 C 20.953125 194.488281 23.9375 195.511719 26.25 196.476562 C 30.546875 198.273438 38.457031 200.730469 44.617188 202.207031 C 46.511719 202.660156 53.382812 203.230469 59.902344 203.472656 C 70.988281 203.882812 71.894531 204.027344 73.699219 205.710938 C 74.765625 206.699219 76.78125 207.917969 78.183594 208.40625 C 78.933594 208.667969 79.460938 208.851562 79.816406 209.082031 L 79.832031 209.097656 C 80.050781 209.265625 80.214844 209.46875 80.347656 209.699219 C 80.550781 210.210938 80.449219 210.96875 80.230469 212.320312 C 79.964844 213.992188 79.027344 217.300781 78.152344 219.671875 C 77.277344 222.042969 76.242188 226.042969 75.839844 228.5625 C 75.03125 233.59375 75.558594 243.785156 76.855469 248.136719 C 77.539062 250.417969 77.414062 251.621094 76.164062 255.011719 C 72.152344 265.867188 72.332031 273.25 76.8125 282.710938 C 79.4375 288.257812 79.550781 290.265625 77.503906 295.035156 C 75.777344 299.058594 75.5 305.378906 76.929688 307.890625 C 77.578125 309.03125 78.027344 315.625 78.34375 328.65625 C 78.738281 344.777344 79.070312 348.875 80.527344 354.910156 C 81.90625 360.625 82.417969 363.078125 84.992188 364.039062 L 85.035156 364.054688 C 85.765625 364.417969 86.640625 364.5625 87.71875 364.542969 C 89.734375 364.679688 92.46875 364.558594 96.371094 364.410156 C 110.242188 363.882812 117.589844 364.789062 131.601562 368.738281 C 142.191406 371.722656 147.117188 372.761719 156.277344 373.996094 C 157.144531 374.113281 158.734375 374.230469 160.714844 374.332031 C 161.199219 374.4375 161.539062 374.539062 161.601562 374.597656 C 161.847656 374.847656 166.976562 374.859375 173.597656 374.746094 L 173.777344 374.746094 C 174.953125 374.765625 176.140625 374.769531 177.3125 374.777344 C 204.636719 374.964844 216.421875 372.671875 242.320312 362.113281 C 262.480469 353.890625 269.4375 351.808594 281.074219 350.507812 C 284.453125 350.128906 287.5625 349.488281 287.972656 349.078125 C 291.351562 345.707031 290.476562 315.453125 286.75 306.535156 C 285.683594 303.984375 285.742188 303.542969 287.796875 298.570312 C 291.632812 289.273438 292.710938 284.722656 292.703125 277.851562 C 292.699219 272.582031 292.371094 270.714844 290.949219 267.96875 C 289.019531 264.242188 289.035156 263.371094 291.363281 251.492188 C 292.382812 246.285156 292.726562 240.578125 292.761719 228.035156 L 292.808594 211.511719 L 293.542969 211.46875 L 297.496094 211.46875 C 303.078125 211.46875 307.132812 209.9375 310.777344 206.445312 C 313.152344 204.167969 314.410156 203.695312 321.992188 202.265625 C 337.105469 199.414062 355.328125 193.238281 358.433594 189.910156 C 358.8125 189.503906 359.085938 189.167969 359.273438 188.773438 L 359.289062 188.746094 C 359.585938 188.292969 359.730469 187.84375 359.730469 187.390625 C 359.730469 187.027344 359.566406 186.140625 359.300781 184.960938 C 359.097656 183.679688 358.769531 182.011719 358.300781 179.660156 C 356.902344 172.667969 346.410156 138.085938 340.921875 122.363281 C 338.589844 115.6875 338.316406 114.132812 338.738281 110.097656 C 339.324219 104.515625 338.300781 100.328125 335.378906 96.300781 C 333.691406 93.972656 333.101562 92.113281 332.710938 87.964844 C 331.78125 78.105469 325.902344 55.0625 322.714844 48.792969 C 316.890625 37.339844 308.1875 32.0625 278.035156 21.742188 C 256.425781 14.34375 247.722656 10.761719 241.773438 6.78125 C 238.710938 4.734375 235.589844 2.820312 234.832031 2.539062 C 234.039062 2.25 231.589844 2.8125 229.097656 3.851562 C 220.503906 7.429688 206.058594 9.605469 190.695312 9.636719 C 174.277344 9.675781 165.308594 7.632812 149.628906 0.300781 C 149.246094 0.125 148.828125 0.015625 148.347656 -0.0078125 Z M 146.875 6.617188 C 146.878906 6.621094 146.882812 6.613281 146.890625 6.617188 C 146.894531 6.621094 146.898438 6.628906 146.90625 6.632812 L 150.558594 12.90625 C 155.179688 20.847656 166.101562 31.917969 172.746094 35.40625 C 175.277344 36.734375 179.917969 38.417969 183.0625 39.132812 C 188.011719 40.253906 189.441406 40.292969 193.75 39.453125 C 199.816406 38.273438 206.621094 35.308594 212.605469 31.222656 C 217.035156 28.199219 228.269531 17.097656 232.078125 11.992188 L 234.050781 9.355469 L 237.605469 11.609375 C 239.808594 13 241.171875 14.421875 241.171875 15.320312 C 241.171875 17.398438 236.558594 25.304688 232.222656 30.648438 C 224.089844 40.679688 213.515625 47.039062 200.441406 49.761719 C 177.035156 54.640625 152.1875 41.960938 140.445312 19.148438 C 137.074219 12.597656 137.179688 12.179688 142.980469 8.839844 Z M 152.949219 9.828125 C 153.605469 9.867188 155.929688 10.554688 158.5625 11.507812 C 168.074219 14.933594 172.402344 15.871094 183.726562 16.070312 C 188.125 16.527344 190.9375 16.527344 196.332031 16.070312 C 208.753906 15.847656 216.847656 14.859375 224.339844 12.714844 C 225.761719 12.304688 227.0625 12.105469 227.226562 12.273438 C 227.394531 12.4375 225.347656 14.867188 222.6875 17.660156 C 217.785156 22.8125 217.472656 22.964844 208.667969 24.964844 C 204.015625 26.023438 184.917969 26.476562 178.523438 25.671875 C 175.40625 25.28125 170.058594 24.097656 166.628906 23.050781 C 160.410156 21.15625 160.371094 21.148438 156.414062 15.671875 C 154.230469 12.65625 152.59375 10.03125 152.773438 9.855469 C 152.792969 9.835938 152.855469 9.820312 152.949219 9.828125 Z M 134.035156 14.289062 C 134.042969 14.289062 134.042969 14.304688 134.050781 14.304688 L 137.308594 20.546875 C 139.914062 25.546875 142.269531 28.527344 148.996094 35.289062 C 155.863281 42.1875 158.5625 44.332031 163.546875 46.863281 C 178.695312 54.546875 192.863281 55.699219 208.433594 50.515625 C 222.578125 45.804688 234.84375 34.949219 242.351562 20.488281 C 243.867188 17.570312 244.804688 16.515625 245.683594 16.792969 C 246.355469 17.003906 250.191406 18.457031 254.1875 20.003906 C 258.183594 21.546875 268.808594 25.339844 277.800781 28.441406 C 307.738281 38.753906 314.808594 43.679688 319.210938 57.289062 L 320.699219 61.867188 C 320.707031 62.027344 320.714844 62.191406 320.714844 62.339844 C 320.710938 62.449219 320.6875 62.578125 320.652344 62.734375 L 317.277344 68.773438 C 315.304688 72.285156 312.878906 76.144531 311.882812 77.359375 C 310.121094 79.507812 310.066406 79.527344 310.039062 77.816406 C 310.007812 75.84375 307.960938 71.457031 306.664062 70.601562 C 305.324219 69.714844 301.230469 69.929688 300.222656 70.9375 C 298.300781 72.859375 299.175781 73.882812 302.300781 73.382812 C 304.808594 72.984375 305.414062 73.160156 306.121094 74.472656 C 307.378906 76.820312 307.203125 82.246094 305.867188 82.246094 C 305.269531 82.246094 302.730469 84.511719 300.222656 87.285156 C 297.714844 90.058594 295.480469 92.039062 295.253906 91.671875 C 294.851562 91.023438 295.445312 87.550781 297.378906 79.183594 C 297.914062 76.875 298.183594 74.710938 297.984375 74.371094 C 297.117188 72.882812 294.964844 76.457031 294.0625 80.878906 C 291.75 92.167969 291.402344 94.371094 290.433594 103.527344 C 290.007812 107.574219 288.730469 138.492188 287.839844 166.289062 C 287.417969 179.527344 286.8125 192.597656 286.484375 195.328125 C 286.144531 198.171875 283.066406 208.621094 279.292969 219.773438 C 275.660156 230.488281 271.582031 242.695312 270.226562 246.898438 C 264.277344 265.347656 253.890625 290.785156 248.792969 299.382812 C 247.128906 302.1875 245.769531 304.691406 245.769531 304.964844 C 245.769531 305.234375 246.503906 305.347656 247.40625 305.214844 C 251.039062 304.671875 261.566406 281.113281 273.277344 247.28125 C 274.222656 244.550781 276.148438 239.398438 277.550781 235.824219 C 278.957031 232.253906 281.199219 226.160156 282.535156 222.277344 C 283.867188 218.394531 285.257812 215.40625 285.628906 215.636719 C 286.574219 216.21875 286.46875 237.082031 285.480469 244.953125 C 283.285156 262.5 281.835938 267.578125 275.488281 279.972656 C 269.320312 292.015625 262.183594 304.480469 253.597656 318.214844 C 250.222656 323.609375 248.90625 326.367188 249.441406 326.902344 C 249.871094 327.335938 250.582031 327.46875 251.019531 327.199219 C 253.015625 325.964844 271.351562 294.6875 279.246094 279.058594 C 283.761719 270.121094 284.335938 269.324219 285.277344 270.605469 C 287 272.960938 286.894531 280.347656 285.054688 287.007812 C 283.113281 294.027344 278.609375 303.960938 275.355469 308.40625 C 273.660156 310.71875 268.53125 316.304688 263.945312 320.820312 C 255.964844 328.679688 253.847656 332.207031 258.875 329.242188 C 261.335938 327.789062 272.703125 316.324219 277.257812 310.703125 L 280.042969 307.257812 L 280.898438 309.4375 C 282.429688 313.390625 283.621094 323.898438 283.917969 332.21875 C 283.917969 332.285156 283.917969 332.355469 283.917969 332.421875 C 283.914062 333.058594 283.890625 333.691406 283.875 334.324219 L 283.683594 341.640625 L 283.683594 341.65625 C 283.539062 342.546875 283.34375 343.15625 283.09375 343.410156 C 282.589844 343.914062 281.019531 344.320312 279.613281 344.320312 C 272.449219 344.320312 258.242188 348.605469 239.652344 356.367188 C 222.585938 363.492188 209.035156 367.128906 193.632812 368.75 C 186.960938 369.453125 171.527344 369.605469 165.460938 369.03125 C 155.703125 368.105469 143.042969 365.484375 130.925781 361.890625 C 121.15625 358.992188 107.84375 357.210938 97.136719 357.367188 C 92.582031 357.4375 88.570312 357.191406 88.21875 356.824219 C 86.746094 355.277344 85.171875 340.761719 84.875 325.945312 C 84.617188 313.28125 84.289062 309.492188 83.164062 306.328125 C 82.507812 304.476562 82.15625 303.476562 82.160156 302.425781 C 82.167969 302.277344 82.179688 302.121094 82.191406 301.96875 C 82.195312 301.9375 82.203125 301.902344 82.207031 301.867188 C 82.324219 300.859375 82.738281 299.65625 83.472656 297.566406 C 85.847656 290.816406 85.664062 286.804688 82.707031 280.441406 C 79.371094 273.265625 79.289062 267.132812 82.414062 257.808594 L 84.636719 251.136719 L 83.371094 245.851562 C 81.496094 238.085938 81.710938 230.367188 84.003906 223.144531 C 85.054688 219.835938 86.121094 216.003906 86.378906 214.632812 C 86.921875 211.738281 87.855469 211.382812 88.441406 213.851562 C 89.578125 218.644531 98.390625 242.609375 101.738281 250.019531 C 108.375 264.707031 120.394531 285.40625 128.550781 296.183594 C 131.953125 300.675781 138.621094 307.640625 139.519531 307.640625 C 141.167969 307.640625 139.96875 305.140625 136.320312 301 C 134.171875 298.558594 130.945312 294.507812 129.15625 291.984375 C 121.183594 280.738281 105.371094 250.558594 99.128906 234.675781 C 96.566406 228.160156 91.65625 213.183594 87.101562 198.007812 C 85.964844 194.226562 84.734375 190.269531 84.375 189.21875 C 81.710938 181.46875 77.78125 157.78125 78.550781 154.113281 C 78.777344 153.035156 78.484375 149.230469 77.902344 145.660156 C 75.105469 128.445312 74.589844 109.871094 76.441406 93.707031 C 78.496094 75.78125 78.5625 72.375 76.972656 68.128906 C 75.886719 65.214844 74.746094 63.796875 72.125 62.0625 C 70.242188 60.816406 68.4375 59.339844 68.101562 58.792969 C 67.199219 57.324219 63.902344 57.585938 63.042969 59.191406 C 62.632812 59.953125 62.183594 62.789062 62.042969 65.492188 C 61.898438 68.195312 61.449219 70.382812 61.039062 70.367188 C 59.882812 70.320312 54.359375 60.761719 54.359375 58.808594 C 54.359375 56.128906 57.566406 48.730469 60.816406 43.890625 C 65.457031 36.980469 69.738281 34.292969 79.421875 32.199219 C 93.355469 29.183594 118.472656 21.207031 129.671875 16.234375 L 134.035156 14.292969 Z M 168.265625 27.425781 C 168.574219 27.410156 169.175781 27.507812 170.121094 27.675781 C 171.554688 27.925781 173.925781 28.519531 175.398438 28.984375 C 179.300781 30.214844 203.34375 30.113281 207.003906 28.851562 C 208.609375 28.300781 210.105469 28.019531 210.320312 28.234375 C 210.878906 28.792969 204.394531 32.464844 199.675781 34.257812 C 195.042969 36.019531 186.296875 36.679688 181.988281 35.597656 C 178.296875 34.671875 170.582031 30.617188 168.824219 28.675781 C 168.03125 27.800781 167.746094 27.449219 168.265625 27.425781 Z M 66.890625 62.546875 C 68.796875 62.617188 72.746094 67.0625 73.671875 70.363281 C 74.558594 73.535156 74.246094 82.164062 73.140625 85.046875 C 72.925781 85.601562 72.527344 86.054688 72.253906 86.046875 C 70.859375 86.007812 64.421875 81.246094 62.320312 78.699219 C 59.355469 75.105469 59.1875 73.621094 61.820312 74.28125 C 64.105469 74.855469 64.367188 74.328125 65.105469 67.730469 C 65.402344 65.066406 66.050781 62.75 66.535156 62.589844 C 66.644531 62.554688 66.761719 62.539062 66.890625 62.546875 Z M 321.730469 68.199219 C 322.003906 68.214844 322.179688 68.628906 322.4375 69.304688 C 323.863281 73.078125 326.003906 84.335938 326.519531 90.804688 C 327 96.824219 327.25 97.636719 329.21875 99.390625 C 331.925781 101.800781 332.511719 104.039062 331.972656 109.960938 C 331.589844 114.171875 331.953125 115.769531 335.734375 126.882812 C 339.355469 137.535156 350.363281 173.238281 350.53125 174.859375 C 350.527344 174.902344 350.53125 174.945312 350.515625 174.988281 C 349.890625 175.679688 339.78125 178.945312 333.726562 180.394531 C 330.992188 181.046875 327.550781 181.902344 326.078125 182.292969 C 324.605469 182.683594 321.765625 183.414062 319.769531 183.914062 C 316.035156 184.851562 314.695312 186.917969 317.820312 186.917969 C 320.03125 186.917969 333.632812 183.570312 343.191406 180.675781 C 347.34375 179.417969 350.984375 178.675781 351.296875 179.023438 C 351.613281 179.375 352.277344 180.867188 352.773438 182.339844 C 353.574219 184.726562 353.496094 185.144531 352.09375 186.285156 C 349.960938 188.019531 335.960938 192.605469 325.695312 194.929688 C 321.066406 195.976562 316.316406 196.839844 315.140625 196.84375 L 312.988281 196.859375 L 313.398438 190.554688 C 314.367188 175.605469 314.847656 157.222656 315.285156 118.148438 L 315.757812 76.707031 C 315.835938 76.523438 315.925781 76.332031 316.023438 76.121094 L 318.734375 71.96875 C 320.535156 69.230469 321.269531 68.171875 321.730469 68.195312 Z M 51.308594 69.261719 C 51.625 69.261719 52.734375 70.890625 53.785156 72.882812 C 55.695312 76.507812 63.914062 84.933594 69.601562 89.109375 L 72.609375 91.335938 L 71.945312 97.679688 C 71.203125 104.6875 71.824219 129.796875 72.964844 138.78125 C 73.363281 141.933594 73.992188 148.984375 74.378906 154.449219 C 74.765625 159.910156 75.441406 166.449219 75.867188 168.96875 C 76.773438 174.332031 80.667969 189.535156 82.929688 196.519531 C 83.792969 199.199219 84.285156 201.742188 84.019531 202.175781 C 82.992188 203.835938 80.222656 202.855469 77.429688 199.832031 C 74.328125 196.476562 73.921875 196.375 66.402344 197.257812 C 66.007812 197.304688 65.59375 197.339844 65.179688 197.375 L 61.773438 197.34375 C 60.03125 197.324219 58.566406 197.296875 57.21875 197.269531 C 48.175781 196.484375 37.082031 193.59375 25.867188 188.964844 C 22.097656 187.410156 21.246094 186.714844 21.046875 185.078125 C 20.902344 183.910156 21.238281 182.929688 21.855469 182.691406 C 22.433594 182.472656 26.460938 183.523438 30.804688 185.035156 C 36.433594 186.992188 38.945312 187.546875 39.53125 186.964844 C 41.019531 185.476562 37.582031 183.195312 29.789062 180.484375 C 25.945312 179.148438 22.695312 177.957031 22.152344 177.6875 C 22.09375 177.597656 22.046875 177.5 22.003906 177.40625 C 21.984375 175.472656 24.636719 161.054688 26.324219 154.09375 C 28.429688 145.40625 34.496094 124.757812 36.242188 120.328125 C 37.933594 116.050781 40.015625 104.65625 40.015625 99.683594 C 40.019531 97.003906 40.5 95.550781 41.917969 93.867188 C 44.441406 90.875 45.382812 88.199219 45.382812 84.03125 C 45.382812 81.183594 45.847656 80.019531 48.050781 77.449219 C 49.945312 75.238281 50.734375 73.589844 50.734375 71.792969 C 50.734375 70.398438 50.992188 69.261719 51.308594 69.261719 Z M 312.515625 83.027344 C 312.570312 83.035156 312.613281 83.050781 312.648438 83.085938 C 313.214844 83.652344 311.722656 180.941406 311.085938 185.003906 C 310.382812 189.519531 308.746094 191.785156 304.1875 194.546875 C 301.03125 196.457031 298.925781 197.117188 294.988281 197.433594 L 289.890625 197.84375 L 290.40625 194.871094 C 291.457031 188.835938 292.398438 160.644531 292.351562 136.496094 C 292.304688 112.863281 292.992188 102.324219 294.796875 98.914062 C 296.191406 96.285156 304.71875 86.058594 305.515625 86.058594 C 306.066406 86.058594 306.171875 87.40625 305.839844 90.078125 C 304.378906 101.851562 298.730469 128.816406 296.683594 133.816406 C 296.167969 135.074219 295.113281 138.601562 294.328125 141.648438 C 293.179688 146.109375 293.078125 147.378906 293.855469 148.144531 C 294.625 148.902344 295.015625 148.835938 295.800781 147.773438 C 296.609375 146.683594 299.742188 134.832031 303.921875 117.011719 C 305.121094 111.90625 306.75 102.855469 307.710938 96 C 308.210938 92.425781 308.761719 88.8125 308.933594 87.972656 C 309.296875 86.199219 311.722656 82.933594 312.515625 83.027344 Z M 309.289062 195.328125 C 312.082031 195.328125 306.667969 202.519531 302.59375 204.21875 C 300.183594 205.226562 297.429688 205.417969 294.339844 204.765625 L 291.082031 204.074219 C 288.109375 203.441406 288.996094 201.4375 292.246094 201.4375 C 295.4375 201.4375 301.777344 199.328125 305.898438 196.902344 C 307.371094 196.035156 308.890625 195.324219 309.289062 195.324219 Z M 106.011719 213.761719 C 104.367188 213.675781 104.9375 215.796875 108.179688 222.273438 C 125.855469 257.605469 158.835938 295.824219 190.316406 317.445312 C 195.644531 321.105469 200 321.835938 197.761719 318.699219 C 197.453125 318.265625 193.664062 315.410156 189.34375 312.351562 C 178.984375 305.015625 173.664062 300.566406 163.648438 290.867188 C 144.285156 272.109375 124.761719 246.269531 112.558594 223.230469 C 109.597656 217.640625 107.199219 213.964844 106.382812 213.808594 C 106.253906 213.78125 106.125 213.769531 106.015625 213.761719 Z M 86.6875 312.089844 C 86.113281 312.136719 85.917969 312.464844 85.917969 313.03125 C 85.917969 313.894531 97.96875 319.996094 110.640625 325.546875 C 115.757812 327.789062 122.363281 330.773438 125.308594 332.160156 C 128.25 333.546875 134.273438 335.957031 138.691406 337.535156 C 146.859375 340.449219 151.308594 340.992188 151.308594 339.066406 C 151.308594 338.863281 150.9375 338.570312 150.308594 338.210938 L 150.277344 338.183594 C 150.003906 337.957031 149.628906 337.761719 149.246094 337.652344 L 149.203125 337.636719 C 147.570312 336.875 145.050781 335.917969 141.742188 334.808594 C 130.839844 331.15625 112.871094 323.667969 97.667969 316.433594 C 91.011719 313.265625 87.949219 311.984375 86.6875 312.089844 Z M 86.6875 312.089844 " fill-opacity="1" fill-rule="nonzero"/></g></svg>